<svg width="48" height="35" viewBox="0 0 48 35" fill="none" xmlns="http://www.w3.org/2000/svg">
<path d="M24 2L23.5 8L21 6.5L16.5 6L12.5 7L9 9.5L6.5 12.5L6 16L6.5 20.5L9 25.5L13 28H21L26 28.5L27 31L22 33.5L20 31.5H16.5L14.5 33.5L9 32V29L7 27H4L1.5 21.5L4 18.5V15L1 14V9H5L8 6.5L7 2.5L13 1L14.5 3.5H18.5L20 1L24 2Z" fill="#003760" stroke="#003760"/>
<path d="M9 21.5L20 16L35 10.5L46 7.5H47.5V8L44 12.5L42.5 12L36 13.5L20 19L10.5 23V24L23.5 19.5L33.5 16L40 15H42.5L40 19.5L37.5516 23.9071L37.5 24L36.5 26H18L20 25.5L22.5 24.5L27.5 23.5L31 22.5L32 22L32.5 23.5L33.5 24L37.5516 23.9071L37.5 22.5L35 21.5V20.5L37.5 20L37 18.5H34L32 19.5L31 20.5L28.5 21.5H27L23.5 22L20 23.5L16.5 25L14.5 26L11.5 25L9 23V22.5V21.5Z" fill="#003760"/>
<path d="M15 13.5L13 17L16.5 15L18 12.5L20 12L19 14.5L23.5 12.5L28 11L30 10.5V9.5L28.5 8.5L26 8L21.5 9.5L17.5 11L15 13.5Z" fill="#003760"/>
<path d="M9 21.5L20 16L35 10.5L46 7.5H47.5V8L44 12.5L42.5 12L36 13.5L20 19L10.5 23V24L23.5 19.5L33.5 16L40 15H42.5L40 19.5L37.5 24L36.5 26H18L20 25.5L22.5 24.5L27.5 23.5L31 22.5L32 22L32.5 23.5L33.5 24L37.5516 23.9071L37.5 22.5L35 21.5V20.5L37.5 20L37 18.5H34L32 19.5L31 20.5L28.5 21.5H27L23.5 22L20 23.5L16.5 25L14.5 26L11.5 25L9 23V22.5V21.5ZM13 17L15 13.5L17.5 11L21.5 9.5L26 8L28.5 8.5L30 9.5V10.5L28 11L23.5 12.5L19 14.5L20 12L18 12.5L16.5 15L13 17Z" stroke="#003760"/>
</svg>
