<svg width="16" height="20" viewBox="0 0 16 20" fill="none" xmlns="http://www.w3.org/2000/svg">
<path d="M9.20711 0.5L9.35355 0.646446L15.3536 6.64645L15.5 6.79289V6.20711L9.79289 0.5H9.20711ZM8.5 1V0.5H2.00143C1.60529 0.502262 1.22612 0.661139 0.946686 0.941977C0.667001 1.22307 0.509995 1.60346 0.51 1.99999V2.00031L0.5 18C0.5 18.0001 0.5 18.0002 0.5 18.0003C0.500067 18.3967 0.657065 18.777 0.936686 19.058C1.2161 19.3388 1.59523 19.4977 1.99134 19.5H13.9992C14.3968 19.4986 14.7777 19.3401 15.0589 19.0589C15.3401 18.7777 15.4986 18.3968 15.5 17.9992V7.5H15H9H8.5V7V1Z" stroke="#F1F1F1"/>
<path d="M12.75 9L6.26953 15.4805L3.53906 12.75L3 13.2891L6 16.2891L6.26953 16.5469L6.53906 16.2891L13.2891 9.53906L12.75 9Z" fill="white"/>
<path fill-rule="evenodd" clip-rule="evenodd" d="M12.7501 8.46973L13.8194 9.53912L6.79839 16.5602L6.26959 17.0659L5.73483 16.5543L2.46973 13.2891L3.53912 12.2197L6.26959 14.9502L12.7501 8.46973ZM12.7501 9.53039L6.26959 16.0109L3.53912 13.2804L3.53039 13.2891L6.26227 16.021L6.26959 16.028L6.27691 16.021L12.7588 9.53912L12.7501 9.53039Z" fill="white"/>
</svg>
