<svg width="12" height="16" viewBox="0 0 12 16" fill="none" xmlns="http://www.w3.org/2000/svg">
<path d="M6.76298 6.07416C7.44879 6.31137 8.42063 6.67916 9.3183 7.1318C9.94402 7.44732 10.5092 7.79203 10.9138 8.14685C11.3336 8.51496 11.4935 8.81688 11.5 9.03947L11.5 9.0399C11.5 9.03943 11.5 9.03952 11.5 9.0402C11.4998 9.04379 11.4989 9.06386 11.4919 9.10588C11.4842 9.15247 11.4712 9.2128 11.4522 9.28735C11.414 9.43662 11.3564 9.62347 11.2834 9.83829C11.1377 10.2671 10.9396 10.7813 10.7382 11.2804C10.5373 11.7782 10.3354 12.2554 10.1836 12.6085C10.1077 12.7849 10.0445 12.93 10.0003 13.0309L9.99203 13.0497L6.76298 15.0921L6.26298 5.38213C6.39121 5.42249 6.56151 5.47745 6.76298 5.54568V6.07416ZM6.76298 6.07416C6.57137 6.00789 6.40208 5.95181 6.26298 5.90692L6.76298 6.07416ZM9.53275 5.47961C8.78893 5.14642 8.05785 4.86776 7.46867 4.65893C7.41436 4.63968 7.3612 4.62101 7.30931 4.60292H7.40174H7.56019H9.37355H9.53275V5.47961ZM9.53275 1.91831V2.04257H9.37355H7.56019H7.40174H7.06019H6.90174H5.08856H4.93032H4.58856H4.43032H2.61695H2.50193V1.91831H5.71469H5.78536H6.21469H6.28536H9.53275ZM4.58856 4.60292H4.69042C4.64313 4.6194 4.59479 4.63637 4.54548 4.65382C3.96291 4.85998 3.23966 5.13501 2.50193 5.46398V4.60292H2.61695H4.43032H4.58856ZM5.22768 5.54881V6.07736C5.41886 6.01116 5.5881 5.95501 5.72768 5.90991V5.38504C5.5986 5.42574 5.42839 5.48076 5.22768 5.54881ZM5.72768 15.3974L5.22768 15.071V15.6681L5.72768 15.9945V15.3974ZM2.11062 13.0361L2.01254 12.9721L1.73922 13.3908L2.15932 13.1196C2.14732 13.101 2.13095 13.073 2.11062 13.0361Z" stroke="#060047"/>
</svg>
