<svg width="24" height="24" viewBox="0 0 24 24" fill="none" xmlns="http://www.w3.org/2000/svg">
<path d="M16.926 19.382L12.624 20.795C12.2186 20.9281 11.7814 20.9281 11.376 20.795L7.074 19.38C6.43788 19.171 5.86439 18.8057 5.40612 18.3176C4.94784 17.8294 4.61943 17.234 4.451 16.586L3 11L12 12L21 11L19.549 16.587C19.3806 17.235 19.0522 17.8304 18.5939 18.3186C18.1356 18.8067 17.5621 19.173 16.926 19.382Z" stroke="black" stroke-width="2" stroke-linecap="round" stroke-linejoin="round"/>
<path d="M12 12L19 11L17.503 7.257C17.3545 6.88591 17.0982 6.56781 16.7672 6.34376C16.4362 6.11971 16.0457 5.99997 15.646 6H8.354C7.9543 5.99997 7.56376 6.11971 7.23276 6.34376C6.90176 6.56781 6.64549 6.88591 6.497 7.257L5 11L12 12ZM12 12V16M12 3V6M11 3H13" stroke="black" stroke-width="2" stroke-linecap="round" stroke-linejoin="round"/>
</svg>
