<svg width="29" height="25" viewBox="0 0 29 25" fill="none" xmlns="http://www.w3.org/2000/svg">
<path d="M26.875 5.625H18.625C18.2603 5.625 17.9106 5.76987 17.6527 6.02773C17.3949 6.28559 17.25 6.63533 17.25 7V11.125H14.5V1.5C14.5 1.13533 14.3551 0.785591 14.0973 0.527728C13.8394 0.269866 13.4897 0.125 13.125 0.125H2.125C1.76033 0.125 1.41059 0.269866 1.15273 0.527728C0.894866 0.785591 0.75 1.13533 0.75 1.5V23.5C0.75 23.8647 0.894866 24.2144 1.15273 24.4723C1.41059 24.7301 1.76033 24.875 2.125 24.875H26.875C27.2397 24.875 27.5894 24.7301 27.8473 24.4723C28.1051 24.2144 28.25 23.8647 28.25 23.5V7C28.25 6.63533 28.1051 6.28559 27.8473 6.02773C27.5894 5.76987 27.2397 5.625 26.875 5.625ZM9 4.25H11.75V7H9V4.25ZM6.25 18H3.5V15.25H6.25V18ZM6.25 12.5H3.5V9.75H6.25V12.5ZM6.25 7H3.5V4.25H6.25V7ZM11.75 18H9V15.25H11.75V18ZM11.75 12.5H9V9.75H11.75V12.5ZM24.125 18H21.375V15.25H24.125V18ZM24.125 12.5H21.375V9.75H24.125V12.5Z" fill="#E65F2B"/>
</svg>
