<svg width="40" height="49" viewBox="0 0 40 49" fill="none" xmlns="http://www.w3.org/2000/svg">
<path d="M37.8522 17.1227L22.123 1.39345C22.0924 1.36304 22.0535 1.34235 22.0112 1.33399C21.9689 1.32562 21.925 1.32995 21.8852 1.34643C21.8453 1.36291 21.8112 1.39081 21.7872 1.42662C21.7631 1.46242 21.7502 1.50453 21.75 1.54767V15.7456C21.75 16.2098 21.9344 16.6549 22.2626 16.9831C22.5908 17.3113 23.0359 17.4956 23.5 17.4956H37.698C37.7411 17.4955 37.7832 17.4825 37.819 17.4585C37.8548 17.4344 37.8827 17.4003 37.8992 17.3605C37.9157 17.3206 37.92 17.2768 37.9116 17.2345C37.9033 17.1922 37.8826 17.1533 37.8522 17.1227Z" fill="#56D88A"/>
<path d="M38.8125 20.9943H23.5C22.1076 20.9943 20.7723 20.4411 19.7877 19.4566C18.8031 18.472 18.25 17.1366 18.25 15.7443V0.431763C18.25 0.31573 18.2039 0.204451 18.1219 0.122404C18.0398 0.0403564 17.9285 -0.0057373 17.8125 -0.0057373H7.75C5.89348 -0.0057373 4.11301 0.731761 2.80025 2.04452C1.4875 3.35727 0.75 5.13775 0.75 6.99426V41.9943C0.75 43.8508 1.4875 45.6313 2.80025 46.944C4.11301 48.2568 5.89348 48.9943 7.75 48.9943H32.25C34.1065 48.9943 35.887 48.2568 37.1997 46.944C38.5125 45.6313 39.25 43.8508 39.25 41.9943V21.4318C39.25 21.3157 39.2039 21.2044 39.1219 21.1224C39.0398 21.0404 38.9285 20.9943 38.8125 20.9943Z" fill="#56D88A"/>
<path d="M12.9381 32.8486H11.0876V31.877H12.9381C13.2604 31.877 13.5208 31.8249 13.7194 31.7207C13.918 31.6165 14.0628 31.4733 14.154 31.291C14.2484 31.1055 14.2956 30.8939 14.2956 30.6562C14.2956 30.4316 14.2484 30.2217 14.154 30.0264C14.0628 29.8278 13.918 29.6683 13.7194 29.5479C13.5208 29.4274 13.2604 29.3672 12.9381 29.3672H11.4635V35.5H10.238V28.3906H12.9381C13.4883 28.3906 13.9554 28.4883 14.3395 28.6836C14.7269 28.8757 15.0215 29.1426 15.2233 29.4844C15.4251 29.8229 15.526 30.2103 15.526 30.6465C15.526 31.1055 15.4251 31.4993 15.2233 31.8281C15.0215 32.1569 14.7269 32.4092 14.3395 32.585C13.9554 32.7607 13.4883 32.8486 12.9381 32.8486ZM22.2643 28.3906V35.5H21.0387L17.8503 30.4072V35.5H16.6247V28.3906H17.8503L21.0485 33.4932V28.3906H22.2643ZM29.1833 31.8672V34.582C29.0824 34.7155 28.9245 34.862 28.7096 35.0215C28.498 35.1777 28.2165 35.3128 27.8649 35.4268C27.5133 35.5407 27.0755 35.5977 26.5514 35.5977C26.1055 35.5977 25.6969 35.5228 25.3258 35.373C24.9547 35.2201 24.6341 34.9971 24.3639 34.7041C24.097 34.4111 23.8903 34.0547 23.7438 33.6348C23.5973 33.2116 23.5241 32.7298 23.5241 32.1895V31.6963C23.5241 31.1592 23.5908 30.6807 23.7243 30.2607C23.861 29.8376 24.0563 29.4795 24.3102 29.1865C24.5641 28.8936 24.8701 28.6722 25.2282 28.5225C25.5895 28.3695 25.998 28.293 26.4538 28.293C27.0365 28.293 27.5182 28.3906 27.8991 28.5859C28.2832 28.778 28.5794 29.0449 28.7878 29.3867C28.9961 29.7285 29.1279 30.1191 29.1833 30.5586H27.9821C27.943 30.3112 27.8665 30.0898 27.7526 29.8945C27.6419 29.6992 27.4824 29.5462 27.2741 29.4355C27.069 29.3216 26.8021 29.2646 26.4733 29.2646C26.1901 29.2646 25.9411 29.3184 25.7262 29.4258C25.5114 29.5332 25.3324 29.6911 25.1891 29.8994C25.0492 30.1077 24.9434 30.3617 24.8717 30.6611C24.8001 30.9606 24.7643 31.3024 24.7643 31.6865V32.1895C24.7643 32.5801 24.805 32.9268 24.8864 33.2295C24.971 33.5322 25.0915 33.7878 25.2477 33.9961C25.4072 34.2044 25.6009 34.3623 25.8288 34.4697C26.0566 34.5739 26.3138 34.626 26.6003 34.626C26.8802 34.626 27.1097 34.6032 27.2887 34.5576C27.4678 34.5088 27.6094 34.4518 27.7135 34.3867C27.821 34.3184 27.904 34.2533 27.9626 34.1914V32.7803H26.4831V31.8672H29.1833Z" fill="white"/>
</svg>
