<svg width="14" height="14" viewBox="0 0 14 14" fill="none" xmlns="http://www.w3.org/2000/svg">
<path fill-rule="evenodd" clip-rule="evenodd" d="M5.06012 3.49414C5.06012 3.25252 5.256 3.05664 5.49762 3.05664L10.5051 3.05664C10.6212 3.05664 10.7324 3.10273 10.8145 3.18478C10.8965 3.26683 10.9426 3.37811 10.9426 3.49414L10.9426 8.50164C10.9426 8.74326 10.7467 8.93913 10.5051 8.93914C10.2635 8.93914 10.0676 8.74326 10.0676 8.50164L10.0676 3.93164L5.49762 3.93164C5.256 3.93164 5.06012 3.73577 5.06012 3.49414Z" fill="#1A932E"/>
<path fill-rule="evenodd" clip-rule="evenodd" d="M3.18387 10.8157C3.01302 10.6449 3.01302 10.3678 3.18387 10.197L10.1259 3.25497C10.2967 3.08411 10.5738 3.08411 10.7446 3.25497C10.9155 3.42582 10.9155 3.70283 10.7446 3.87369L3.80259 10.8157C3.63173 10.9866 3.35473 10.9866 3.18387 10.8157Z" fill="#1A932E"/>
</svg>
