<svg width="22" height="22" viewBox="0 0 22 22" fill="none" xmlns="http://www.w3.org/2000/svg">
<path fill-rule="evenodd" clip-rule="evenodd" d="M11.0002 2.52075C6.31986 2.52075 2.521 6.31961 2.521 10.9999C2.521 15.6802 6.31986 19.4791 11.0002 19.4791C15.6805 19.4791 19.4793 15.6802 19.4793 10.9999C19.4793 6.31961 15.6805 2.52075 11.0002 2.52075ZM1.146 10.9999C1.146 5.56022 5.56047 1.14575 11.0002 1.14575C16.4399 1.14575 20.8543 5.56022 20.8543 10.9999C20.8543 16.4396 16.4399 20.8541 11.0002 20.8541C5.56047 20.8541 1.146 16.4396 1.146 10.9999Z" fill="#F1F1F1"/>
<path d="M13.8125 7.0625L13.5227 8.05114H8L8.28977 7.0625H13.8125ZM11.2216 13.7273L8.10227 9.90909L8.08523 9.19318H9.63636C10.0398 9.19318 10.3835 9.13636 10.6676 9.02273C10.9517 8.90625 11.169 8.73295 11.3196 8.50284C11.4702 8.26989 11.5455 7.97727 11.5455 7.625C11.5455 7.10511 11.3892 6.69744 11.0767 6.40199C10.7642 6.10369 10.2841 5.95455 9.63636 5.95455H8L8.28977 5H9.63636C10.3295 5 10.8977 5.11506 11.3409 5.34517C11.7869 5.57244 12.1165 5.88494 12.3295 6.28267C12.5455 6.67756 12.6534 7.125 12.6534 7.625C12.6534 8.0767 12.554 8.4929 12.3551 8.87358C12.1591 9.25142 11.8438 9.5554 11.4091 9.78551C10.9773 10.0156 10.4063 10.1307 9.69602 10.1307H9.67045L12.5511 13.6591V13.7273H11.2216ZM13.8125 5L13.5227 5.98864L9.17614 5.95455L9.46591 5H13.8125Z" fill="white"/>
<path fill-rule="evenodd" clip-rule="evenodd" d="M14.7204 13.114C15.0932 13.5045 15.0932 14.1377 14.7204 14.5282L10.9022 18.5282C10.5295 18.9187 9.92508 18.9187 9.55231 18.5282L8.27958 17.1948C7.90681 16.8043 7.90681 16.1712 8.27958 15.7806C8.65235 15.3901 9.38625 16.0972 9.75902 16.4877L10.3568 17.1139L13.5 13.821C13.8728 13.4305 14.3476 12.7234 14.7204 13.114Z" fill="#F1F1F1"/>
</svg>
