<svg width="24" height="24" viewBox="0 0 24 24" fill="none" xmlns="http://www.w3.org/2000/svg">
<path d="M4.8 17.194L4.203 13.851C4.11875 13.3799 4.20621 12.8942 4.44951 12.4821C4.69281 12.07 5.07582 11.7588 5.529 11.605L5.699 11.547M5.699 11.547L11.358 9.627C11.7744 9.48588 12.2256 9.48588 12.642 9.627L18.3 11.547M5.699 11.547L5.7 7.747C5.7 7.21657 5.91071 6.70786 6.28579 6.33279C6.66086 5.95771 7.16957 5.747 7.7 5.747H10.2M18.3 11.547L18.47 11.605C18.9234 11.7586 19.3066 12.0697 19.5501 12.4819C19.7936 12.894 19.8812 13.3798 19.797 13.851L19.2 17.193M18.3 11.547V7.747C18.3 7.21657 18.0893 6.70786 17.7142 6.33279C17.3391 5.95771 16.8304 5.747 16.3 5.747H13.8M10.2 5.747H13.8M10.2 5.747V4.8C10.2 4.32261 10.3896 3.86477 10.7272 3.52721C11.0648 3.18964 11.5226 3 12 3C12.4774 3 12.9352 3.18964 13.2728 3.52721C13.6104 3.86477 13.8 4.32261 13.8 4.8V5.747M3 20.399C3.647 21.056 5.222 21.242 6.725 20.615C7.757 20.185 9.061 20.174 10.116 20.544C11.3374 20.9611 12.6626 20.9611 13.884 20.544C14.939 20.174 16.243 20.184 17.274 20.614C18.778 21.242 20.354 21.056 21 20.398" stroke="black" stroke-width="1.5" stroke-linecap="round" stroke-linejoin="round"/>
</svg>
