<svg width="16" height="20" viewBox="0 0 16 20" fill="none" xmlns="http://www.w3.org/2000/svg">
<path d="M9.20711 0.5L9.35355 0.646446L15.3536 6.64645L15.5 6.79289V6.20711L9.79289 0.5H9.20711ZM8.5 1V0.5H2.00143C1.60529 0.502262 1.22612 0.661139 0.946686 0.941977C0.667001 1.22307 0.509995 1.60346 0.51 1.99999V2.00031L0.5 18C0.5 18.0001 0.5 18.0002 0.5 18.0003C0.500067 18.3967 0.657065 18.777 0.936686 19.058C1.2161 19.3388 1.59523 19.4977 1.99134 19.5H13.9992C14.3968 19.4986 14.7777 19.3401 15.0589 19.0589C15.3401 18.7777 15.4986 18.3968 15.5 17.9992V7.5H15H9H8.5V7V1Z" stroke="#F1F1F1"/>
<path d="M11.1533 11.335L10.8635 12.3236H5.34082L5.63059 11.335H11.1533ZM8.56241 17.9997L5.44309 14.1816L5.42605 13.4656H6.97718C7.38059 13.4656 7.72434 13.4088 8.00843 13.2952C8.29253 13.1787 8.50985 13.0054 8.66042 12.7753C8.81099 12.5423 8.88628 12.2497 8.88628 11.8975C8.88628 11.3776 8.73003 10.9699 8.41753 10.6744C8.10502 10.3762 7.62491 10.227 6.97718 10.227H5.34082L5.63059 9.27246H6.97718C7.67037 9.27246 8.23855 9.38752 8.68173 9.61763C9.12775 9.8449 9.4573 10.1574 9.67037 10.5551C9.88627 10.95 9.99423 11.3975 9.99423 11.8975C9.99423 12.3492 9.8948 12.7654 9.69593 13.146C9.49991 13.5239 9.18457 13.8279 8.74991 14.058C8.31809 14.2881 7.74707 14.4031 7.03684 14.4031H7.01127L9.89196 17.9316V17.9997H8.56241ZM11.1533 9.27246L10.8635 10.2611L6.51696 10.227L6.80673 9.27246H11.1533Z" fill="white"/>
</svg>
