<svg width="160" height="35" viewBox="0 0 160 35" fill="none" xmlns="http://www.w3.org/2000/svg">
<path d="M64.919 15.146C65.089 14.806 65.174 14.4773 65.174 14.16C65.174 13.8427 65.157 13.599 65.123 13.429C65.089 13.2477 65.0323 13.089 64.953 12.953C64.783 12.6583 64.528 12.511 64.188 12.511C63.7687 12.511 63.389 12.664 63.049 12.97C62.6863 13.2873 62.505 13.6953 62.505 14.194C62.505 14.5113 62.6127 14.7947 62.828 15.044C63.0547 15.282 63.338 15.5143 63.678 15.741C64.018 15.9677 64.3807 16.1943 64.766 16.421C65.1513 16.6477 65.514 16.897 65.854 17.169C66.636 17.7923 67.027 18.5233 67.027 19.362C67.027 19.9287 66.874 20.4557 66.568 20.943C66.2733 21.419 65.8767 21.8327 65.378 22.184C64.29 22.9547 63.0263 23.34 61.587 23.34C60.4197 23.34 59.5357 23.153 58.935 22.779C58.3343 22.3937 58.034 21.912 58.034 21.334C58.034 20.3027 58.4363 19.6567 59.241 19.396C59.4677 19.3167 59.751 19.277 60.091 19.277C60.4423 19.277 60.8163 19.3507 61.213 19.498C61.0317 19.9627 60.941 20.4047 60.941 20.824C60.941 21.7307 61.264 22.184 61.91 22.184C62.3293 22.184 62.709 22.031 63.049 21.725C63.4003 21.419 63.576 21.096 63.576 20.756C63.576 20.4047 63.4627 20.1043 63.236 19.855C63.0207 19.6057 62.7487 19.3847 62.42 19.192C62.0913 18.988 61.7343 18.7897 61.349 18.597C60.975 18.4043 60.6237 18.172 60.295 17.9C59.5243 17.2767 59.139 16.4663 59.139 15.469C59.139 14.823 59.2977 14.2507 59.615 13.752C59.9323 13.242 60.346 12.817 60.856 12.477C61.876 11.7857 63.0093 11.44 64.256 11.44C65.514 11.44 66.4433 11.627 67.044 12.001C67.656 12.375 67.962 12.8793 67.962 13.514C67.962 14.0693 67.7467 14.5227 67.316 14.874C66.942 15.1687 66.5283 15.316 66.075 15.316C65.6217 15.316 65.2363 15.2593 64.919 15.146ZM75.6603 20.382C75.8757 20.654 75.9833 21.011 75.9833 21.453C75.9833 22.065 75.7567 22.5353 75.3033 22.864C74.85 23.1813 74.2663 23.34 73.5523 23.34C73.1443 23.34 72.6287 23.2947 72.0053 23.204C70.7813 23.0113 69.9823 22.915 69.6083 22.915C69.2343 22.915 68.9737 22.9263 68.8263 22.949C68.679 22.9603 68.4863 22.9773 68.2483 23L70.3393 11.78H77.6663C77.6663 12.4713 77.4963 12.9983 77.1563 13.361C76.8277 13.7237 76.3347 13.905 75.6773 13.905C75.02 13.905 74.357 13.752 73.6883 13.446L73.1613 16.421H76.1873C76.1873 17.0217 76.04 17.492 75.7453 17.832C75.4507 18.1607 75.054 18.325 74.5553 18.325C74.068 18.325 73.6713 18.2683 73.3653 18.155C73.0593 18.0417 72.8893 17.968 72.8553 17.934L72.2433 21.147C72.5153 21.181 72.9063 21.198 73.4163 21.198C74.289 21.198 75.037 20.926 75.6603 20.382ZM77.4808 23L79.5548 11.831C80.6768 11.7063 82.0538 11.644 83.6858 11.644C85.3291 11.644 86.5305 11.882 87.2898 12.358C88.0491 12.834 88.4288 13.5537 88.4288 14.517C88.4288 15.469 88.1795 16.2453 87.6808 16.846C87.1935 17.4467 86.5248 17.8433 85.6748 18.036C85.8675 18.9767 86.1848 19.8267 86.6268 20.586C87.0348 21.3 87.4768 21.7703 87.9528 21.997C87.7828 22.473 87.5221 22.813 87.1708 23.017C86.8308 23.2323 86.4115 23.34 85.9128 23.34C85.4255 23.34 84.9891 23.1983 84.6038 22.915C84.2185 22.6203 83.8728 22.2067 83.5668 21.674C82.9208 20.518 82.5638 19.0277 82.4958 17.203H82.6148C83.4535 17.1803 84.0825 16.9537 84.5018 16.523C84.9211 16.081 85.1308 15.401 85.1308 14.483C85.1308 13.3383 84.6491 12.7433 83.6858 12.698H83.3118C83.2098 12.698 83.1305 12.7037 83.0738 12.715L81.1188 23H77.4808ZM89.5491 12.46C89.8777 11.78 90.4954 11.44 91.4021 11.44C92.3201 11.44 92.9887 11.7063 93.4081 12.239C93.8387 12.7603 94.0541 13.6273 94.0541 14.84V20.909L98.1851 11.797H100.208L94.9211 23H90.9431L90.4331 14.84C90.3991 14.2393 90.2971 13.735 90.1271 13.327C89.9684 12.919 89.7757 12.63 89.5491 12.46ZM99.4313 23L101.59 11.78H105.33L103.137 23H99.4313ZM114.67 19.481C114.965 19.6963 115.112 20.0363 115.112 20.501C115.112 20.9543 115.01 21.3453 114.806 21.674C114.613 21.9913 114.324 22.2747 113.939 22.524C113.112 23.0567 111.973 23.323 110.522 23.323C109.083 23.323 107.966 22.949 107.173 22.201C106.391 21.4417 106 20.3933 106 19.056C106 17.1633 106.493 15.4973 107.479 14.058C108.227 12.9927 109.27 12.2333 110.607 11.78C111.298 11.5533 111.984 11.44 112.664 11.44C113.344 11.44 113.894 11.4853 114.313 11.576C114.732 11.6667 115.101 11.8027 115.418 11.984C116.109 12.3807 116.455 12.8963 116.455 13.531C116.455 14.109 116.183 14.6133 115.639 15.044C115.14 15.4293 114.687 15.622 114.279 15.622C113.871 15.622 113.582 15.5937 113.412 15.537C113.457 15.129 113.48 14.7947 113.48 14.534C113.48 14.262 113.474 14.0297 113.463 13.837C113.452 13.6443 113.418 13.4573 113.361 13.276C113.248 12.8567 113.015 12.647 112.664 12.647C112.324 12.647 111.978 12.8113 111.627 13.14C111.287 13.4573 110.97 13.888 110.675 14.432C110.006 15.6673 109.672 17.016 109.672 18.478C109.672 19.1807 109.87 19.736 110.267 20.144C110.664 20.5407 111.287 20.739 112.137 20.739C112.772 20.739 113.389 20.5293 113.99 20.11C114.251 19.9287 114.477 19.719 114.67 19.481ZM123.865 20.382C124.08 20.654 124.188 21.011 124.188 21.453C124.188 22.065 123.961 22.5353 123.508 22.864C123.054 23.1813 122.471 23.34 121.757 23.34C121.349 23.34 120.833 23.2947 120.21 23.204C118.986 23.0113 118.187 22.915 117.813 22.915C117.439 22.915 117.178 22.9263 117.031 22.949C116.883 22.9603 116.691 22.9773 116.453 23L118.544 11.78H125.871C125.871 12.4713 125.701 12.9983 125.361 13.361C125.032 13.7237 124.539 13.905 123.882 13.905C123.224 13.905 122.561 13.752 121.893 13.446L121.366 16.421H124.392C124.392 17.0217 124.244 17.492 123.95 17.832C123.655 18.1607 123.258 18.325 122.76 18.325C122.272 18.325 121.876 18.2683 121.57 18.155C121.264 18.0417 121.094 17.968 121.06 17.934L120.448 21.147C120.72 21.181 121.111 21.198 121.621 21.198C122.493 21.198 123.241 20.926 123.865 20.382ZM132.179 21.725C132.179 20.9317 132.338 19.7417 132.655 18.155H130.139L129.204 23H125.651L127.81 11.78H131.397L130.411 16.795H132.927L133.862 11.78H137.449C137.29 12.6187 137.109 13.5083 136.905 14.449L136.327 17.22C135.896 19.3733 135.681 20.9203 135.681 21.861C135.681 22.2463 135.743 22.5467 135.868 22.762C135.301 23.1473 134.684 23.34 134.015 23.34C133.358 23.34 132.887 23.1813 132.604 22.864C132.321 22.5467 132.179 22.167 132.179 21.725ZM138.266 20.484C138.266 20.042 138.322 19.5377 138.436 18.971L139.813 11.78H143.57L142.21 19.022C142.108 19.5547 142.057 20.0193 142.057 20.416C142.057 20.8013 142.136 21.096 142.295 21.3C142.465 21.504 142.703 21.606 143.009 21.606C143.315 21.606 143.564 21.5663 143.757 21.487C143.949 21.4077 144.125 21.2717 144.284 21.079C144.59 20.6937 144.839 20.008 145.032 19.022L146.409 11.78H148.976L147.616 19.005C147.298 20.6143 146.703 21.742 145.831 22.388C144.981 23.0227 143.717 23.34 142.04 23.34C140.782 23.34 139.818 23.068 139.15 22.524C138.56 22.048 138.266 21.368 138.266 20.484ZM149.23 22.915L151.372 11.78C152.709 11.6667 153.808 11.61 154.67 11.61C155.531 11.61 156.239 11.6497 156.795 11.729C157.35 11.797 157.815 11.9273 158.189 12.12C158.937 12.4827 159.311 13.1627 159.311 14.16C159.311 14.738 159.061 15.2707 158.563 15.758C158.098 16.2 157.611 16.472 157.101 16.574C157.645 16.6647 158.109 16.914 158.495 17.322C158.903 17.7527 159.107 18.3023 159.107 18.971C159.107 20.263 158.625 21.2887 157.662 22.048C156.698 22.796 155.27 23.17 153.378 23.17C152.074 23.17 150.692 23.085 149.23 22.915ZM153.004 21.929C153.106 21.9403 153.168 21.946 153.191 21.946H153.344C154.273 21.946 154.936 21.64 155.333 21.028C155.627 20.552 155.775 19.8777 155.775 19.005C155.775 18.5403 155.622 18.1833 155.316 17.934C155.021 17.6847 154.534 17.5487 153.854 17.526L153.004 21.929ZM156.438 14.177C156.438 13.2363 155.984 12.766 155.078 12.766H154.925C154.879 12.766 154.823 12.7717 154.755 12.783L154.075 16.37H154.245C155.707 16.336 156.438 15.605 156.438 14.177Z" fill="#01365D"/>
<path d="M24 2L23.5 8L21 6.5L16.5 6L12.5 7L9 9.5L6.5 12.5L6 16L6.5 20.5L9 25.5L13 28H21L26 28.5L27 31L22 33.5L20 31.5H16.5L14.5 33.5L9 32V29L7 27H4L1.5 21.5L4 18.5V15L1 14V9H5L8 6.5L7 2.5L13 1L14.5 3.5H18.5L20 1L24 2Z" fill="#003760" stroke="#003760"/>
<path d="M9 21.5L20 16L35 10.5L46 7.5H47.5V8L44 12.5L42.5 12L36 13.5L20 19L10.5 23V24L23.5 19.5L33.5 16L40 15H42.5L40 19.5L37.5516 23.9071L37.5 24L36.5 26H18L20 25.5L22.5 24.5L27.5 23.5L31 22.5L32 22L32.5 23.5L33.5 24L37.5516 23.9071L37.5 22.5L35 21.5V20.5L37.5 20L37 18.5H34L32 19.5L31 20.5L28.5 21.5H27L23.5 22L20 23.5L16.5 25L14.5 26L11.5 25L9 23V22.5V21.5Z" fill="#003760"/>
<path d="M15 13.5L13 17L16.5 15L18 12.5L20 12L19 14.5L23.5 12.5L28 11L30 10.5V9.5L28.5 8.5L26 8L21.5 9.5L17.5 11L15 13.5Z" fill="#003760"/>
<path d="M9 21.5L20 16L35 10.5L46 7.5H47.5V8L44 12.5L42.5 12L36 13.5L20 19L10.5 23V24L23.5 19.5L33.5 16L40 15H42.5L40 19.5L37.5516 23.9071L37.5 24L36.5 26H18L20 25.5L22.5 24.5L27.5 23.5L31 22.5L32 22L32.5 23.5L33.5 24L37.5516 23.9071L37.5 22.5L35 21.5V20.5L37.5 20L37 18.5H34L32 19.5L31 20.5L28.5 21.5H27L23.5 22L20 23.5L16.5 25L14.5 26L11.5 25L9 23V22.5V21.5Z" stroke="#003760"/>
<path d="M15 13.5L13 17L16.5 15L18 12.5L20 12L19 14.5L23.5 12.5L28 11L30 10.5V9.5L28.5 8.5L26 8L21.5 9.5L17.5 11L15 13.5Z" stroke="#003760"/>
</svg>
