<svg width="222" height="44" viewBox="0 0 222 44" fill="none" xmlns="http://www.w3.org/2000/svg">
<path d="M37.344 7.69199C37.7376 7.63439 38.4768 7.5576 38.976 7.5288C39.4752 7.4904 40.1664 7.4904 40.512 7.5288C40.8576 7.5576 41.3952 7.63439 41.712 7.69199C42.0288 7.74959 42.4608 7.88398 42.672 7.99917C42.8832 8.10477 43.2 8.28716 43.3728 8.40235C43.5456 8.51754 43.8816 8.87272 44.1024 9.18951C44.3328 9.50629 44.64 10.0631 44.7744 10.4374C44.9184 10.8118 45.0528 11.3014 45.0816 11.5414C45.1296 11.8486 45.1008 12.0022 45.0144 12.0789C44.9376 12.1461 44.496 12.2133 44.016 12.2325C43.5456 12.2613 42.912 12.3477 42.624 12.4341C42.336 12.5109 41.8368 12.6549 41.52 12.7413C41.2032 12.8181 40.6848 12.9621 40.368 13.0389C40.0512 13.1157 39.7056 13.2213 39.6 13.2693C39.4944 13.3173 38.6784 13.6245 37.776 13.9508C36.8736 14.2772 35.8464 14.6516 35.472 14.786C35.0976 14.9108 34.7616 15.0548 34.704 15.1028C34.656 15.1508 34.56 15.1892 34.4928 15.1892C34.4256 15.1892 34.0896 15.3236 33.744 15.4772C33.3984 15.6308 33.0816 15.7651 33.024 15.7651C32.9664 15.7651 32.7456 15.8515 32.5248 15.9475C32.2944 16.0435 31.9008 16.2163 31.632 16.3219C31.3728 16.4371 30.5856 16.7635 29.904 17.0611C29.2224 17.3587 28.6176 17.637 28.56 17.685C28.5024 17.7234 28.2912 17.8098 28.08 17.877C27.8688 17.9442 27.6096 18.0594 27.504 18.1362C27.3984 18.2034 27.1968 18.261 27.0528 18.261C26.88 18.261 26.784 18.213 26.784 18.117C26.784 18.0402 26.8128 17.9538 26.8608 17.9346C26.8992 17.9154 26.9664 17.781 27.0048 17.6274C27.0432 17.4738 27.2736 16.9651 27.4944 16.4851C27.7248 16.0147 28.0704 15.2852 28.2624 14.882C28.4544 14.4692 28.608 14.066 28.608 13.9892C28.608 13.8932 28.512 13.8452 28.32 13.8452C28.1664 13.8452 27.8016 13.9508 27.5328 14.0756C27.2544 14.2004 26.7264 14.4308 26.352 14.594C25.9776 14.7572 25.488 14.9972 25.248 15.1316C25.008 15.2564 24.72 15.4676 24.6048 15.5924C24.4896 15.7171 24.24 16.0915 24.0576 16.4371C23.8656 16.7827 23.6256 17.2339 23.52 17.4451C23.4048 17.6562 23.1936 18.0498 23.04 18.309C22.8864 18.5778 22.5792 19.1442 22.3488 19.5857C22.0608 20.1329 21.8304 20.4497 21.6 20.6033C21.4176 20.7281 20.4384 21.2272 19.44 21.7168C18.4416 22.2064 17.5104 22.6384 17.376 22.6864C17.2224 22.744 17.088 22.7344 17.0208 22.6768C16.9248 22.6 17.0112 22.3696 17.3952 21.6496C17.664 21.1312 18.1152 20.2769 18.3936 19.7489C18.672 19.221 19.008 18.597 19.1424 18.357C19.2672 18.117 19.5552 17.5794 19.776 17.1571C19.9968 16.7347 20.3808 16.1107 20.6208 15.7651C20.8704 15.4196 21.3888 14.8244 21.792 14.4404C22.1856 14.0468 22.752 13.5669 23.04 13.3653C23.328 13.1733 24.24 12.6645 25.056 12.2421C25.872 11.8198 27.1104 11.2246 27.792 10.9174C28.4736 10.6198 29.2704 10.2646 29.5488 10.1399C29.8176 10.0151 30.0864 9.90947 30.144 9.90947C30.2016 9.90947 30.4224 9.82307 30.6432 9.71748C30.8736 9.62148 31.5264 9.3527 32.112 9.14151C32.6976 8.92072 33.3792 8.69033 33.648 8.62314C33.9072 8.55594 34.1952 8.46955 34.272 8.42155C34.3488 8.38315 34.7424 8.25836 35.136 8.16236C35.5296 8.05677 36.0288 7.94158 36.24 7.89358C36.4512 7.83598 36.9504 7.74959 37.344 7.69199Z" fill="white"/>
<path d="M69.408 7.90318C69.9072 7.78798 70.4256 7.65359 70.56 7.60559C70.6944 7.5672 71.0208 7.5288 71.28 7.5192C71.7024 7.5096 71.7696 7.5288 71.8848 7.74959C71.9424 7.88398 72 8.07597 72 8.18156C72 8.28716 71.7888 8.66154 71.52 9.02632C71.2608 9.3815 70.8864 9.89027 70.704 10.1495C70.512 10.4182 69.9552 11.167 69.456 11.8294C68.9664 12.4917 68.5152 13.1349 68.4576 13.2693C68.4 13.4037 68.112 13.8357 67.824 14.2292C67.536 14.6228 67.2096 15.1124 67.104 15.314C66.96 15.5828 66.8544 15.6691 66.672 15.6691C66.4896 15.6691 66.3936 15.5828 66.2688 15.314C66.1344 15.0356 65.9712 14.9012 65.52 14.69C64.9536 14.4308 64.9056 14.4212 63.2928 14.4212C62.0064 14.4212 61.4112 14.4692 60.6528 14.6132C60.1056 14.7284 59.3184 14.882 58.896 14.9684C58.4736 15.0548 57.8016 15.1988 57.408 15.2948C57.0144 15.3908 56.3616 15.554 55.968 15.6595C55.5744 15.7651 54.9696 15.9283 54.624 16.0147C54.2784 16.1011 53.7888 16.2451 53.52 16.3411C53.2608 16.4371 52.8 16.5715 52.512 16.6387C52.224 16.7059 51.8784 16.8115 51.744 16.8883C51.6096 16.9555 51.4368 17.0131 51.36 17.0131C51.2832 17.0131 50.784 17.1667 50.256 17.3587C49.728 17.5506 48.9984 17.8098 48.624 17.9346C48.2496 18.069 47.7792 18.2322 47.568 18.309C47.3568 18.3858 46.8192 18.5778 46.368 18.741C45.9168 18.9042 45.2064 19.1634 44.784 19.3073C44.3616 19.4609 43.8048 19.6529 43.536 19.7489C43.2768 19.8353 43.0176 19.9505 42.96 19.9985C42.912 20.0465 42.7872 20.0849 42.672 20.0849C42.5664 20.0849 42.3072 20.1713 42.096 20.2673C41.8848 20.3633 41.3856 20.5649 40.992 20.7089C40.5984 20.8625 40.032 21.0737 39.744 21.1888C39.456 21.304 38.9568 21.5056 38.64 21.6208C38.3232 21.736 37.824 21.9376 37.536 22.0528C37.248 22.1776 36.6432 22.4176 36.192 22.5808C35.7408 22.7536 35.1936 22.9743 34.9728 23.0703C34.7424 23.1759 34.4928 23.2527 34.416 23.2527C34.3392 23.2527 34.2528 23.2911 34.224 23.3487C34.1952 23.4063 33.9456 23.5119 33.6768 23.5887C33.3984 23.6655 33.0816 23.7903 32.976 23.8671C32.8704 23.9535 32.7264 24.0207 32.6688 24.0207C32.6016 24.0207 32.304 24.1263 32.016 24.2607C31.728 24.3951 31.4688 24.5007 31.44 24.5007C31.4112 24.5007 31.2096 24.5871 30.9888 24.6831C30.7584 24.7886 30.4032 24.9326 30.192 25.0094C29.9808 25.0862 29.568 25.2398 29.28 25.355C28.992 25.4702 28.7136 25.6046 28.6656 25.6526C28.608 25.7102 28.5024 25.7486 28.4256 25.7486C28.3392 25.7486 28.0704 25.8542 27.8208 25.9886C27.5616 26.123 27.3216 26.2286 27.264 26.2286C27.2064 26.2286 26.8992 26.3534 26.5728 26.507C26.2368 26.6509 25.6704 26.9005 25.296 27.0445C24.9216 27.1885 24.5376 27.3709 24.432 27.4381C24.3264 27.5149 24.1728 27.5725 24.096 27.5725C24.0192 27.5725 23.7792 27.6589 23.568 27.7549C23.3568 27.8509 22.9344 28.0525 22.6368 28.1869C22.3296 28.3213 22.0512 28.4364 22.0128 28.4364C21.9648 28.4364 21.7248 28.542 21.456 28.6668C21.1968 28.8012 20.6976 29.0124 20.352 29.1564C20.0064 29.3004 19.4976 29.5212 19.2288 29.646C18.9504 29.7708 18.7008 29.8764 18.672 29.8764C18.6432 29.8764 18.2208 30.0684 17.7408 30.2891C17.2512 30.5195 16.608 30.8075 16.32 30.9227C16.032 31.0475 15.5808 31.2491 15.312 31.3739C15.0528 31.4987 14.7936 31.5947 14.736 31.5947C14.6784 31.5947 14.5344 31.6811 14.4 31.7867C14.2656 31.8923 14.0352 31.9978 13.872 32.0362C13.7088 32.065 13.4592 32.2186 13.008 32.6698L13.2384 33.313C13.3632 33.6682 13.5168 33.9849 13.5744 34.0137C13.632 34.0521 13.9584 33.9657 14.304 33.8409C14.6496 33.7066 14.9664 33.5722 15.024 33.5338C15.0816 33.4858 15.2448 33.4282 15.408 33.3898C15.5712 33.3514 15.9552 33.2074 16.272 33.073C16.5888 32.9386 17.0688 32.7466 17.328 32.641C17.5968 32.5354 17.9808 32.3722 18.192 32.2762C18.4032 32.1898 19.008 31.9499 19.536 31.7483C20.064 31.5467 20.7744 31.2779 21.12 31.1531C21.4656 31.0187 21.9648 30.8363 22.224 30.7403C22.4928 30.6539 22.7904 30.5291 22.896 30.4811C23.0016 30.4235 23.328 30.2795 23.616 30.1644C23.904 30.0492 24.3648 29.886 24.624 29.8092C24.8928 29.7228 25.1424 29.6268 25.2 29.5788C25.2576 29.5404 25.5552 29.4156 25.872 29.3004C26.1888 29.1852 26.6208 29.0412 26.832 28.974C27.0432 28.8972 27.648 28.6668 28.176 28.4556C28.704 28.2541 29.2896 28.0333 29.472 27.9757C29.6544 27.9277 30.1056 27.7645 30.48 27.6205C30.8544 27.4765 31.392 27.2845 31.68 27.1981C31.968 27.1021 32.2944 26.9773 32.4 26.9197C32.5056 26.8621 33.0048 26.6797 33.504 26.5166C34.0032 26.3534 34.4928 26.171 34.5888 26.123C34.6752 26.075 35.3856 25.8158 36.1728 25.5566C36.9504 25.2878 38.3136 24.827 39.216 24.5391C40.1184 24.2415 41.04 23.9247 41.28 23.8287C41.52 23.7327 42.1056 23.5407 42.576 23.4063C43.0464 23.2623 43.5744 23.0895 43.728 23.0127C43.8816 22.9455 44.2368 22.84 44.496 22.7728C44.7648 22.7056 45.12 22.6 45.2928 22.5232C45.456 22.4464 45.648 22.3888 45.696 22.3888C45.744 22.3888 46.1472 22.2832 46.5792 22.1488C47.0208 22.0144 47.7408 21.7936 48.192 21.6592L48.2632 21.638C48.7087 21.5053 49.3042 21.3279 49.632 21.2368C49.9776 21.1312 50.736 20.9201 51.312 20.7569C51.888 20.5937 52.4256 20.4689 52.4928 20.4689C52.5504 20.4689 52.896 20.3825 53.2512 20.2865C53.616 20.1905 54.3168 20.0177 54.816 19.9025C55.3152 19.7969 56.1408 19.6241 56.64 19.5089C57.1392 19.4033 58.368 19.2306 59.376 19.125C61.1424 18.933 61.2288 18.933 62.16 19.0962C63.0144 19.2498 63.1584 19.2977 63.4848 19.6049C63.6864 19.7873 63.8784 20.0465 63.9072 20.1809C63.936 20.3633 63.7824 20.6993 63.264 21.5248C62.8896 22.1296 62.352 22.9935 62.064 23.4447C61.776 23.8959 61.5072 24.3279 61.4784 24.4047C61.44 24.4815 61.3152 24.6831 61.2096 24.8366C61.0944 24.9902 60.9504 25.2302 60.8832 25.3646C60.816 25.499 60.7104 25.691 60.6432 25.7966C60.576 25.9022 60.336 26.315 60.096 26.7085C59.856 27.1021 59.6064 27.5341 59.5488 27.6685C59.4816 27.8029 59.3184 28.0813 59.184 28.2925C59.0496 28.5036 58.7904 28.974 58.5984 29.3484C58.4064 29.7228 58.2048 30.078 58.1472 30.1548C58.08 30.2315 57.84 30.6443 57.6 31.0763C57.36 31.4987 56.8416 32.5162 56.4384 33.3322C56.0352 34.1481 55.5456 35.1561 55.3536 35.5689C55.1616 35.972 54.9216 36.356 54.816 36.404C54.6912 36.4712 45.3792 36.5 27.456 36.5C12.5088 36.5 0.2208 36.4808 0.144 36.452C0.0672 36.4232 0 36.3368 0 36.26C0 36.1832 0.2304 35.9912 0.4992 35.828C0.7776 35.6744 1.4208 35.2809 1.92 34.9641C2.4192 34.6473 2.9568 34.3209 3.12 34.2441C3.2832 34.1673 3.792 33.8697 4.272 33.5818C4.7424 33.2938 5.7984 32.6794 6.6048 32.209C7.4112 31.7483 8.448 31.1627 8.9088 30.9131C9.3696 30.6635 9.8976 30.3755 10.08 30.2699C10.2624 30.1739 10.656 29.9628 10.944 29.8092C11.232 29.646 11.8176 29.3388 12.24 29.1084C12.6624 28.8876 13.584 28.398 14.2752 28.0429C14.976 27.6781 15.6288 27.3421 15.7152 27.2941C15.8112 27.2461 16.3584 26.9773 16.944 26.7085C17.5296 26.4302 18.0672 26.1614 18.144 26.1134C18.2208 26.075 18.3936 25.9886 18.528 25.931C18.6624 25.8734 19.392 25.5278 20.16 25.1534C20.928 24.7886 21.9648 24.2895 22.464 24.0495C22.9632 23.8095 23.5488 23.5407 23.76 23.4447C23.9712 23.3487 24.384 23.1663 24.672 23.0319C24.96 22.8976 25.7184 22.5712 26.352 22.2928C26.9856 22.024 27.6864 21.7168 27.9072 21.6112C28.1376 21.5152 28.512 21.3424 28.752 21.2368C28.992 21.1312 29.3664 20.9585 29.5872 20.8529C29.8176 20.7473 30.0384 20.6609 30.096 20.6609C30.1536 20.6609 30.4608 20.5265 30.7872 20.3729C31.1232 20.2097 31.4304 20.0849 31.488 20.0849C31.5456 20.0849 31.8528 19.9697 32.1792 19.8353C32.5152 19.7009 32.9664 19.4993 33.1872 19.4033C33.4176 19.3073 33.6192 19.221 33.648 19.221C33.6768 19.221 33.84 19.1538 34.0032 19.077C34.176 19.0098 34.56 18.8466 34.848 18.741C35.136 18.6258 35.5872 18.4434 35.856 18.3378C36.1152 18.2322 36.576 18.0594 36.864 17.9634C37.152 17.8578 37.5072 17.7138 37.6512 17.637C37.8048 17.5602 37.9776 17.493 38.0352 17.493C38.1024 17.493 38.3328 17.4067 38.544 17.3107C38.7552 17.2147 39.3216 17.0035 39.792 16.8307C40.2624 16.6675 40.8384 16.4371 41.0592 16.3411C41.2896 16.2355 41.5488 16.1491 41.6352 16.1491C41.7312 16.1491 41.9808 16.0627 42.192 15.9667C42.4032 15.8611 43.3056 15.5348 44.208 15.2276C45.1104 14.93 45.9744 14.6228 46.128 14.5556C46.2816 14.4884 46.6272 14.3636 46.896 14.2772C47.1552 14.2004 47.568 14.066 47.808 13.9892C48.048 13.922 48.4512 13.7877 48.72 13.7013C48.9792 13.6149 49.4112 13.4613 49.68 13.3653C49.9392 13.2693 50.3712 13.1253 50.64 13.0389C50.8992 12.9429 51.3984 12.7989 51.744 12.7029C52.0896 12.6069 52.5024 12.4725 52.656 12.4053C52.8096 12.3477 53.2224 12.2133 53.568 12.1173C53.9136 12.0214 54.4896 11.8486 54.864 11.7334C55.2384 11.6182 55.8336 11.4454 56.208 11.3494C56.5824 11.2438 57.312 11.0326 57.84 10.8694C58.368 10.6966 59.0976 10.4854 59.472 10.3894C59.8464 10.2838 60.4032 10.1399 60.72 10.0535C61.0368 9.97666 61.4688 9.86147 61.68 9.79427C61.8912 9.73669 62.1983 9.65991 62.3519 9.62151L62.352 9.62148C62.5056 9.57349 62.9856 9.44869 63.408 9.3239C63.8304 9.20871 64.3488 9.08391 64.56 9.03592C64.7712 8.99752 65.184 8.90152 65.472 8.81513C65.76 8.73833 66.2784 8.60394 66.624 8.51754C66.9696 8.43115 67.5264 8.30636 67.872 8.23916C68.2176 8.17196 68.9088 8.01837 69.408 7.90318Z" fill="white"/>
<path d="M81.779 30.5L84.856 19.28H88.409L89.191 25.689L92.353 19.28H95.328L95.634 27.678C95.6793 28.7887 95.974 29.514 96.518 29.854C96.3933 30.0807 96.1497 30.3017 95.787 30.517C95.4243 30.7323 94.9993 30.84 94.512 30.84C94.036 30.84 93.6563 30.772 93.373 30.636C93.0897 30.5 92.8687 30.3187 92.71 30.092C92.4267 29.684 92.285 29.089 92.285 28.307V23.054L88.936 30.5H86.828L85.638 22.867L83.734 30.5H81.779ZM98.063 29.99C97.8023 29.6953 97.6097 29.3157 97.485 28.851C97.3717 28.3863 97.315 27.7743 97.315 27.015C97.315 26.2557 97.4453 25.5303 97.706 24.839C97.9667 24.1477 98.335 23.5527 98.811 23.054C99.7857 22.0113 101.078 21.49 102.687 21.49C103.265 21.49 103.764 21.5863 104.183 21.779L107.09 21.49L105.832 28.12C105.798 28.256 105.781 28.4487 105.781 28.698C105.781 28.9473 105.855 29.1513 106.002 29.31C106.161 29.4687 106.353 29.5593 106.58 29.582C106.467 29.9673 106.2 30.2733 105.781 30.5C105.373 30.7267 104.937 30.84 104.472 30.84C104.007 30.84 103.616 30.7493 103.299 30.568C102.993 30.398 102.795 30.1657 102.704 29.871C102.523 30.1543 102.239 30.3867 101.854 30.568C101.469 30.7493 101.015 30.84 100.494 30.84C99.984 30.84 99.5193 30.772 99.1 30.636C98.6807 30.5 98.335 30.2847 98.063 29.99ZM101.65 23.088C101.525 23.292 101.406 23.5697 101.293 23.921C101.18 24.261 101.027 24.8957 100.834 25.825C100.653 26.743 100.562 27.5307 100.562 28.188C100.562 28.8453 100.613 29.2703 100.715 29.463C100.817 29.6557 100.959 29.752 101.14 29.752C101.503 29.752 101.814 29.582 102.075 29.242C102.347 28.8907 102.534 28.409 102.636 27.797L103.537 22.816C103.299 22.612 103.038 22.51 102.755 22.51C102.483 22.51 102.262 22.5553 102.092 22.646C101.933 22.7367 101.786 22.884 101.65 23.088ZM113.413 25.723C113.821 24.9977 114.025 24.2667 114.025 23.53C114.025 23.0427 113.849 22.799 113.498 22.799C113.226 22.799 112.948 23.0313 112.665 23.496C112.37 23.9607 112.177 24.4933 112.087 25.094L111.203 30.5L107.684 30.84L109.418 21.83L112.223 21.49L111.917 23.207C112.472 22.0623 113.373 21.49 114.62 21.49C115.277 21.49 115.781 21.66 116.133 22C116.495 22.34 116.677 22.8613 116.677 23.564C116.677 24.2553 116.444 24.822 115.98 25.264C115.526 25.706 114.909 25.927 114.127 25.927C113.787 25.927 113.549 25.859 113.413 25.723ZM121.122 29.565C120.771 30.415 120.034 30.84 118.912 30.84C118.334 30.84 117.864 30.6417 117.501 30.245C117.195 29.8937 117.042 29.5423 117.042 29.191C117.042 28.273 117.252 26.9187 117.671 25.128L118.3 21.83L121.751 21.49L120.714 26.862C120.521 27.7007 120.425 28.2673 120.425 28.562C120.425 29.208 120.657 29.5423 121.122 29.565ZM118.606 19.467C118.606 19.025 118.787 18.685 119.15 18.447C119.524 18.209 119.977 18.09 120.51 18.09C121.043 18.09 121.468 18.209 121.785 18.447C122.114 18.685 122.278 19.025 122.278 19.467C122.278 19.909 122.097 20.2433 121.734 20.47C121.383 20.6967 120.941 20.81 120.408 20.81C119.875 20.81 119.439 20.6967 119.099 20.47C118.77 20.2433 118.606 19.909 118.606 19.467ZM129.846 30.84C128.475 30.84 127.789 30.3073 127.789 29.242C127.801 28.9473 127.852 28.5507 127.942 28.052L128.248 26.488C128.554 25.0147 128.707 24.1137 128.707 23.785C128.707 23.1277 128.515 22.799 128.129 22.799C127.483 22.799 126.99 23.6433 126.65 25.332L125.647 30.5L122.23 30.84L123.998 21.813L126.786 21.49L126.514 23.156C127.047 22.0453 128.129 21.49 129.761 21.49C130.555 21.49 131.116 21.66 131.444 22C131.784 22.3287 131.954 22.867 131.954 23.615C131.954 24.3177 131.773 25.4907 131.41 27.134C131.24 27.8707 131.155 28.3807 131.155 28.664C131.155 28.936 131.229 29.1513 131.376 29.31C131.535 29.4687 131.728 29.5593 131.954 29.582C131.841 29.9673 131.586 30.2733 131.189 30.5C130.804 30.7267 130.356 30.84 129.846 30.84ZM140.284 27.627C140.567 27.8197 140.709 28.1313 140.709 28.562C140.709 28.9813 140.601 29.327 140.386 29.599C140.17 29.871 139.887 30.0977 139.536 30.279C138.81 30.653 138.057 30.84 137.275 30.84C136.493 30.84 135.869 30.755 135.405 30.585C134.951 30.415 134.572 30.1713 134.266 29.854C133.665 29.2533 133.365 28.4033 133.365 27.304C133.365 25.5927 133.829 24.2157 134.759 23.173C135.756 22.051 137.122 21.49 138.856 21.49C139.932 21.49 140.737 21.7167 141.27 22.17C141.666 22.51 141.865 22.9577 141.865 23.513C141.865 25.5077 140.142 26.505 136.697 26.505C136.651 26.7997 136.629 27.0717 136.629 27.321C136.629 27.8423 136.742 28.205 136.969 28.409C137.207 28.6017 137.541 28.698 137.972 28.698C138.402 28.698 138.844 28.6017 139.298 28.409C139.762 28.205 140.091 27.9443 140.284 27.627ZM136.816 25.774C137.62 25.774 138.255 25.5247 138.72 25.026C139.184 24.55 139.417 23.9323 139.417 23.173C139.417 22.9123 139.366 22.714 139.264 22.578C139.173 22.4307 139.031 22.357 138.839 22.357C138.646 22.357 138.465 22.3967 138.295 22.476C138.136 22.544 137.972 22.7027 137.802 22.952C137.382 23.5187 137.054 24.4593 136.816 25.774ZM145.609 30.5L148.686 19.28H152.239L153.021 25.689L156.183 19.28H159.158L159.464 27.678C159.51 28.7887 159.804 29.514 160.348 29.854C160.224 30.0807 159.98 30.3017 159.617 30.517C159.255 30.7323 158.83 30.84 158.342 30.84C157.866 30.84 157.487 30.772 157.203 30.636C156.92 30.5 156.699 30.3187 156.54 30.092C156.257 29.684 156.115 29.089 156.115 28.307V23.054L152.766 30.5H150.658L149.468 22.867L147.564 30.5H145.609ZM161.893 29.99C161.633 29.6953 161.44 29.3157 161.315 28.851C161.202 28.3863 161.145 27.7743 161.145 27.015C161.145 26.2557 161.276 25.5303 161.536 24.839C161.797 24.1477 162.165 23.5527 162.641 23.054C163.616 22.0113 164.908 21.49 166.517 21.49C167.095 21.49 167.594 21.5863 168.013 21.779L170.92 21.49L169.662 28.12C169.628 28.256 169.611 28.4487 169.611 28.698C169.611 28.9473 169.685 29.1513 169.832 29.31C169.991 29.4687 170.184 29.5593 170.41 29.582C170.297 29.9673 170.031 30.2733 169.611 30.5C169.203 30.7267 168.767 30.84 168.302 30.84C167.838 30.84 167.447 30.7493 167.129 30.568C166.823 30.398 166.625 30.1657 166.534 29.871C166.353 30.1543 166.07 30.3867 165.684 30.568C165.299 30.7493 164.846 30.84 164.324 30.84C163.814 30.84 163.35 30.772 162.93 30.636C162.511 30.5 162.165 30.2847 161.893 29.99ZM165.48 23.088C165.356 23.292 165.237 23.5697 165.123 23.921C165.01 24.261 164.857 24.8957 164.664 25.825C164.483 26.743 164.392 27.5307 164.392 28.188C164.392 28.8453 164.443 29.2703 164.545 29.463C164.647 29.6557 164.789 29.752 164.97 29.752C165.333 29.752 165.645 29.582 165.905 29.242C166.177 28.8907 166.364 28.409 166.466 27.797L167.367 22.816C167.129 22.612 166.869 22.51 166.585 22.51C166.313 22.51 166.092 22.5553 165.922 22.646C165.764 22.7367 165.616 22.884 165.48 23.088ZM179.113 30.84C177.742 30.84 177.056 30.3073 177.056 29.242C177.067 28.9473 177.118 28.5507 177.209 28.052L177.515 26.488C177.821 25.0147 177.974 24.1137 177.974 23.785C177.974 23.1277 177.781 22.799 177.396 22.799C176.75 22.799 176.257 23.6433 175.917 25.332L174.914 30.5L171.497 30.84L173.265 21.813L176.053 21.49L175.781 23.156C176.314 22.0453 177.396 21.49 179.028 21.49C179.821 21.49 180.382 21.66 180.711 22C181.051 22.3287 181.221 22.867 181.221 23.615C181.221 24.3177 181.04 25.4907 180.677 27.134C180.507 27.8707 180.422 28.3807 180.422 28.664C180.422 28.936 180.496 29.1513 180.643 29.31C180.802 29.4687 180.994 29.5593 181.221 29.582C181.108 29.9673 180.853 30.2733 180.456 30.5C180.071 30.7267 179.623 30.84 179.113 30.84ZM183.396 29.99C183.136 29.6953 182.943 29.3157 182.818 28.851C182.705 28.3863 182.648 27.7743 182.648 27.015C182.648 26.2557 182.779 25.5303 183.039 24.839C183.3 24.1477 183.668 23.5527 184.144 23.054C185.119 22.0113 186.411 21.49 188.02 21.49C188.598 21.49 189.097 21.5863 189.516 21.779L192.423 21.49L191.165 28.12C191.131 28.256 191.114 28.4487 191.114 28.698C191.114 28.9473 191.188 29.1513 191.335 29.31C191.494 29.4687 191.687 29.5593 191.913 29.582C191.8 29.9673 191.534 30.2733 191.114 30.5C190.706 30.7267 190.27 30.84 189.805 30.84C189.341 30.84 188.95 30.7493 188.632 30.568C188.326 30.398 188.128 30.1657 188.037 29.871C187.856 30.1543 187.573 30.3867 187.187 30.568C186.802 30.7493 186.349 30.84 185.827 30.84C185.317 30.84 184.853 30.772 184.433 30.636C184.014 30.5 183.668 30.2847 183.396 29.99ZM186.983 23.088C186.859 23.292 186.74 23.5697 186.626 23.921C186.513 24.261 186.36 24.8957 186.167 25.825C185.986 26.743 185.895 27.5307 185.895 28.188C185.895 28.8453 185.946 29.2703 186.048 29.463C186.15 29.6557 186.292 29.752 186.473 29.752C186.836 29.752 187.148 29.582 187.408 29.242C187.68 28.8907 187.867 28.409 187.969 27.797L188.87 22.816C188.632 22.612 188.372 22.51 188.088 22.51C187.816 22.51 187.595 22.5553 187.425 22.646C187.267 22.7367 187.119 22.884 186.983 23.088ZM194.566 23.394C194.951 22.85 195.433 22.3967 196.011 22.034C196.6 21.6713 197.252 21.49 197.966 21.49C198.68 21.49 199.207 21.6033 199.547 21.83L202.879 21.49L201.723 28.018C201.326 30.2393 200.708 31.7863 199.87 32.659C199.065 33.4863 197.881 33.9 196.317 33.9C195.127 33.9 194.192 33.713 193.512 33.339C192.832 32.965 192.492 32.4663 192.492 31.843C192.492 31.3783 192.667 31.01 193.019 30.738C193.37 30.4773 193.818 30.347 194.362 30.347C194.838 30.347 195.257 30.4547 195.62 30.67C195.835 30.7833 195.994 30.9193 196.096 31.078C195.835 31.3047 195.705 31.605 195.705 31.979C195.705 32.4663 195.931 32.71 196.385 32.71C197.144 32.71 197.739 31.8147 198.17 30.024C198.294 29.5367 198.408 29.0493 198.51 28.562C198 29.1853 197.167 29.497 196.011 29.497C195.206 29.497 194.571 29.3043 194.107 28.919C193.642 28.5337 193.41 27.8877 193.41 26.981C193.41 26.4143 193.506 25.8137 193.699 25.179C193.891 24.533 194.18 23.938 194.566 23.394ZM196.776 27.032C196.776 27.8027 196.974 28.188 197.371 28.188C197.643 28.188 197.909 28.0407 198.17 27.746C198.374 27.508 198.515 27.2133 198.595 26.862L199.462 22.493C199.405 22.4817 199.348 22.4647 199.292 22.442C199.178 22.3967 199.048 22.374 198.901 22.374C198.209 22.374 197.66 22.9407 197.252 24.074C196.934 24.958 196.776 25.944 196.776 27.032ZM210.506 27.627C210.789 27.8197 210.931 28.1313 210.931 28.562C210.931 28.9813 210.823 29.327 210.608 29.599C210.392 29.871 210.109 30.0977 209.758 30.279C209.032 30.653 208.279 30.84 207.497 30.84C206.715 30.84 206.091 30.755 205.627 30.585C205.173 30.415 204.794 30.1713 204.488 29.854C203.887 29.2533 203.587 28.4033 203.587 27.304C203.587 25.5927 204.051 24.2157 204.981 23.173C205.978 22.051 207.344 21.49 209.078 21.49C210.154 21.49 210.959 21.7167 211.492 22.17C211.888 22.51 212.087 22.9577 212.087 23.513C212.087 25.5077 210.364 26.505 206.919 26.505C206.873 26.7997 206.851 27.0717 206.851 27.321C206.851 27.8423 206.964 28.205 207.191 28.409C207.429 28.6017 207.763 28.698 208.194 28.698C208.624 28.698 209.066 28.6017 209.52 28.409C209.984 28.205 210.313 27.9443 210.506 27.627ZM207.038 25.774C207.842 25.774 208.477 25.5247 208.942 25.026C209.406 24.55 209.639 23.9323 209.639 23.173C209.639 22.9123 209.588 22.714 209.486 22.578C209.395 22.4307 209.253 22.357 209.061 22.357C208.868 22.357 208.687 22.3967 208.517 22.476C208.358 22.544 208.194 22.7027 208.024 22.952C207.604 23.5187 207.276 24.4593 207.038 25.774ZM218.074 25.723C218.482 24.9977 218.686 24.2667 218.686 23.53C218.686 23.0427 218.511 22.799 218.159 22.799C217.887 22.799 217.61 23.0313 217.326 23.496C217.032 23.9607 216.839 24.4933 216.748 25.094L215.864 30.5L212.345 30.84L214.079 21.83L216.884 21.49L216.578 23.207C217.134 22.0623 218.035 21.49 219.281 21.49C219.939 21.49 220.443 21.66 220.794 22C221.157 22.34 221.338 22.8613 221.338 23.564C221.338 24.2553 221.106 24.822 220.641 25.264C220.188 25.706 219.57 25.927 218.788 25.927C218.448 25.927 218.21 25.859 218.074 25.723Z" fill="white"/>
</svg>
