<svg width="15" height="14" viewBox="0 0 15 14" fill="none" xmlns="http://www.w3.org/2000/svg">
<path fill-rule="evenodd" clip-rule="evenodd" d="M10.7061 5.0611C10.9477 5.0611 11.1436 5.25698 11.1436 5.4986L11.1436 10.5061C11.1436 10.6221 11.0975 10.7334 11.0154 10.8155C10.9334 10.8975 10.8221 10.9436 10.7061 10.9436L5.69856 10.9436C5.45694 10.9436 5.26106 10.7477 5.26106 10.5061C5.26106 10.2645 5.45694 10.0686 5.69856 10.0686L10.2686 10.0686L10.2686 5.4986C10.2686 5.25698 10.4644 5.0611 10.7061 5.0611Z" fill="#EE201C"/>
<path fill-rule="evenodd" clip-rule="evenodd" d="M3.38449 3.18485C3.55534 3.01399 3.83235 3.01399 4.00321 3.18485L10.9452 10.1269C11.1161 10.2977 11.1161 10.5747 10.9452 10.7456C10.7744 10.9164 10.4974 10.9164 10.3265 10.7456L3.38449 3.80357C3.21363 3.63271 3.21363 3.3557 3.38449 3.18485Z" fill="#EE201C"/>
</svg>
