<svg width="24" height="24" viewBox="0 0 24 24" fill="none" xmlns="http://www.w3.org/2000/svg">
<g clip-path="url(#clip0_38_2329)">
<path d="M11.8811 4.29155C11.9906 4.29195 12.1 4.2906 12.2096 4.28911C13.0951 4.28497 13.8793 4.52956 14.5313 5.15621C15.1126 5.82031 15.4116 6.54804 15.3952 7.43386C15.3676 7.65288 15.2949 7.81066 15.1406 7.96871C15.0942 7.99191 15.0942 7.99191 15.0469 8.01559C15.0462 8.06544 15.0462 8.06544 15.0456 8.1163C15.0249 9.36778 14.825 10.2531 13.9219 11.1562C13.9123 11.2614 13.9072 11.367 13.9043 11.4726C13.9009 11.5593 13.9009 11.5593 13.8974 11.6477C13.9293 11.8623 13.9908 11.9082 14.1563 12.0468C14.2943 12.1233 14.4375 12.1839 14.5831 12.2444C14.6243 12.2621 14.6655 12.2799 14.708 12.2981C14.8393 12.3545 14.9709 12.4102 15.1026 12.4658C16.762 13.1695 16.762 13.1695 17.1502 13.9766C17.2286 14.1732 17.2558 14.3556 17.2569 14.5664C17.2574 14.6315 17.2574 14.6315 17.2579 14.698C17.2581 14.7451 17.2582 14.7922 17.2583 14.8407C17.2586 14.8907 17.2589 14.9407 17.2592 14.9923C17.2602 15.1575 17.2607 15.3227 17.2612 15.4879C17.2614 15.5444 17.2616 15.6008 17.2618 15.659C17.2627 15.9573 17.2634 16.2557 17.2639 16.5541C17.2644 16.8627 17.266 17.1712 17.2678 17.4798C17.2691 17.7169 17.2695 17.9539 17.2696 18.191C17.2699 18.3048 17.2704 18.4186 17.2713 18.5324C17.2724 18.6913 17.2724 18.8502 17.272 19.0091C17.2729 19.0798 17.2729 19.0798 17.2739 19.152C17.2715 19.4688 17.2715 19.4688 17.1651 19.6231C17.0148 19.7174 16.9081 19.7092 16.7344 19.6875C16.5851 19.605 16.5547 19.5703 16.5 19.4062C16.4954 19.3408 16.4932 19.2752 16.4926 19.2096C16.4919 19.1495 16.4919 19.1495 16.4912 19.0883C16.4909 19.0445 16.4907 19.0007 16.4904 18.9556C16.4899 18.9094 16.4895 18.8632 16.489 18.8157C16.4875 18.6627 16.4863 18.5098 16.4852 18.3568C16.4842 18.2509 16.4832 18.1449 16.4822 18.039C16.4796 17.76 16.4773 17.4809 16.4751 17.2019C16.4727 16.9172 16.4701 16.6326 16.4675 16.3479C16.4625 15.7892 16.4577 15.2305 16.4531 14.6718C16.3156 14.8038 16.1792 14.937 16.043 15.0703C16.0043 15.1074 15.9656 15.1445 15.9258 15.1827C15.5339 15.5683 15.4036 15.816 15.3983 16.3681C15.3983 16.443 15.3986 16.518 15.3991 16.5929C15.3999 16.712 15.3996 16.8309 15.3989 16.95C15.3977 17.2023 15.398 17.4546 15.3985 17.707C15.399 18.0002 15.3989 18.2934 15.3973 18.5866C15.397 18.7037 15.3978 18.8209 15.3986 18.938C15.3983 19.0098 15.398 19.0815 15.3976 19.1533C15.3984 19.202 15.3984 19.202 15.3992 19.2517C15.3973 19.4069 15.3838 19.4882 15.2901 19.6141C15.1412 19.7206 15.038 19.7098 14.8594 19.6875C14.7101 19.605 14.6797 19.5703 14.625 19.4062C14.6201 19.2944 14.618 19.1825 14.6175 19.0707C14.6172 19.0366 14.617 19.0026 14.6168 18.9676C14.6161 18.8549 14.6158 18.7423 14.6155 18.6297C14.6152 18.5511 14.615 18.4726 14.6147 18.394C14.6142 18.2291 14.6139 18.0642 14.6138 17.8993C14.6135 17.689 14.6124 17.4787 14.611 17.2684C14.6102 17.106 14.6099 16.9435 14.6098 16.7811C14.6097 16.7036 14.6093 16.6262 14.6087 16.5487C14.6033 15.8128 14.7077 15.299 15.2319 14.7553C15.3465 14.6391 15.4632 14.525 15.5801 14.4111C15.6285 14.3634 15.6769 14.3156 15.7253 14.2678C15.8425 14.1521 15.9602 14.0368 16.0781 13.9218C16.0449 13.7718 16.0449 13.7718 15.9109 13.708C15.8577 13.6823 15.8045 13.6566 15.7496 13.6301C15.7206 13.616 15.6915 13.6019 15.6615 13.5874C15.3065 13.4171 14.9453 13.2606 14.584 13.1045C14.5147 13.0743 14.4454 13.0442 14.3762 13.0141C14.2092 12.9415 14.0421 12.8691 13.875 12.7968C13.8328 12.8347 13.7906 12.8726 13.7471 12.9117C13.6402 13.0047 13.5346 13.0861 13.4157 13.1636C12.9744 13.451 12.5281 13.8043 12.3869 14.3347C12.2485 15.1082 12.3058 15.9191 12.3338 16.7004C12.3459 17.067 12.3506 17.4339 12.3558 17.8007C12.3598 18.0856 12.3652 18.3702 12.3745 18.6549C12.3766 18.733 12.3766 18.733 12.3787 18.8126C12.3813 18.9095 12.3846 19.0064 12.3888 19.1032C12.3935 19.3088 12.3952 19.4197 12.2866 19.599C12.1807 19.6936 12.14 19.7195 12 19.7168C11.9691 19.7174 11.9381 19.718 11.9063 19.7186C11.7525 19.6675 11.7086 19.5912 11.625 19.4531C11.6031 19.2903 11.613 19.1306 11.6217 18.9669C11.6254 18.8653 11.6291 18.7637 11.6327 18.6622C11.6349 18.6083 11.6372 18.5545 11.6395 18.499C11.6505 18.2111 11.655 17.923 11.6605 17.6349C11.6678 17.2695 11.6768 16.9045 11.694 16.5393C11.8123 14.9736 11.8123 14.9736 11.1645 13.6157C10.8641 13.3052 10.5292 13.0386 10.1719 12.7968C10.0463 12.8484 9.92076 12.8999 9.79521 12.9515C9.76012 12.9659 9.72503 12.9803 9.68887 12.9951C9.35834 13.131 9.03079 13.273 8.70412 13.4179C8.64892 13.4421 8.59372 13.4663 8.53685 13.4912C8.4575 13.5263 8.4575 13.5263 8.37654 13.5622C8.30609 13.5933 8.30609 13.5933 8.23421 13.6251C8.11814 13.6831 8.02242 13.7466 7.92189 13.8281C7.99363 14 8.09642 14.1047 8.23024 14.2327C8.27308 14.2744 8.31592 14.3161 8.36006 14.3591C8.44974 14.4457 8.53979 14.5319 8.62996 14.618C9.05166 15.0297 9.34601 15.4194 9.38724 16.0225C9.38745 16.0842 9.38767 16.146 9.38789 16.2096C9.38813 16.244 9.38837 16.2784 9.38862 16.3139C9.38926 16.4264 9.38922 16.5389 9.38911 16.6514C9.3893 16.7302 9.3895 16.8089 9.38972 16.8877C9.39007 17.0522 9.39006 17.2167 9.38981 17.3812C9.38954 17.5918 9.39034 17.8023 9.39142 18.0129C9.39211 18.1753 9.39215 18.3378 9.39201 18.5002C9.39203 18.5778 9.39228 18.6555 9.39275 18.7331C9.39333 18.8416 9.39301 18.95 9.39247 19.0585C9.3925 19.1202 9.39253 19.1818 9.39256 19.2453C9.37241 19.4301 9.31985 19.5551 9.18752 19.6875C8.84971 19.7151 8.84971 19.7151 8.71401 19.6141C8.59614 19.4629 8.5994 19.3372 8.6024 19.1533C8.60222 19.1187 8.60203 19.084 8.60185 19.0484C8.60157 18.9733 8.60171 18.8982 8.60224 18.8232C8.60305 18.7041 8.6027 18.5851 8.60204 18.466C8.60065 18.1702 8.60127 17.8744 8.60182 17.5786C8.6022 17.3287 8.60182 17.0789 8.60045 16.8291C8.60012 16.7122 8.6009 16.5954 8.60172 16.4786C8.60198 15.962 8.54851 15.675 8.18776 15.2944C8.11133 15.2192 8.03442 15.1445 7.95705 15.0703C7.89795 15.0124 7.89795 15.0124 7.83766 14.9535C7.74115 14.8591 7.64423 14.7653 7.54689 14.6718C7.54662 14.7306 7.54634 14.7894 7.54606 14.85C7.54338 15.4039 7.53997 15.9577 7.53584 16.5115C7.53374 16.7963 7.5319 17.081 7.53065 17.3658C7.52943 17.6405 7.52754 17.9153 7.52518 18.19C7.5244 18.2949 7.52386 18.3998 7.52356 18.5046C7.52311 18.6514 7.5218 18.7982 7.52028 18.945C7.52035 18.9884 7.52042 19.0319 7.52049 19.0766C7.51719 19.3018 7.50839 19.459 7.35939 19.6406C7.21446 19.713 7.09716 19.7012 6.93752 19.6875C6.83461 19.6232 6.83461 19.6232 6.75002 19.5C6.7219 19.3377 6.72491 19.1771 6.7265 19.0128C6.72624 18.9632 6.72599 18.9137 6.72573 18.8626C6.72514 18.6984 6.72592 18.5343 6.72676 18.3702C6.72675 18.256 6.72668 18.1418 6.72655 18.0276C6.72649 17.7879 6.72708 17.5482 6.72815 17.3086C6.72947 17.0022 6.72935 16.6958 6.72875 16.3894C6.72842 16.1533 6.72879 15.9173 6.72937 15.6812C6.72958 15.5683 6.7296 15.4554 6.72942 15.3425C6.72928 15.1841 6.73006 15.0257 6.73108 14.8673C6.73086 14.821 6.73065 14.7748 6.73044 14.7272C6.73569 14.2316 6.86686 13.8428 7.17189 13.4531C7.19328 13.4247 7.21467 13.3963 7.23671 13.367C7.404 13.1735 7.60482 13.0627 7.83199 12.9516C7.86465 12.9354 7.89732 12.9193 7.93097 12.9026C8.36286 12.6915 8.80522 12.5029 9.24713 12.3139C9.35863 12.2661 9.46983 12.2177 9.58101 12.1691C9.63176 12.1478 9.63176 12.1478 9.68353 12.1259C9.86045 12.0481 9.98478 11.9856 10.0781 11.8125C10.1217 11.588 10.1211 11.3808 10.0781 11.1562C9.98801 11.0273 9.89067 10.939 9.77107 10.8372C9.34494 10.4553 9.07466 9.79607 9.00002 9.23434C8.996 9.13864 8.9921 9.04293 8.9883 8.94723C8.97198 8.70084 8.91489 8.57812 8.73634 8.40945C8.54255 8.2118 8.61435 7.83126 8.6133 7.57613C8.61233 7.51927 8.61136 7.46241 8.61037 7.40383C8.6067 6.54558 8.86773 5.78352 9.46877 5.15621C10.1516 4.50197 10.9602 4.28647 11.8811 4.29155ZM9.89412 5.82857C9.50221 6.33046 9.35795 6.8748 9.36916 7.49996C9.36958 7.54522 9.37 7.59048 9.37044 7.63711C9.37153 7.74765 9.37307 7.85818 9.37502 7.96871C9.53373 7.92016 9.64262 7.8865 9.77052 7.77828C9.92194 7.6638 10.031 7.65083 10.2188 7.64059C10.333 7.66109 10.333 7.66109 10.4063 7.68746C10.4692 8.02513 10.4692 8.02513 10.4019 8.18148C10.292 8.32327 10.1791 8.38345 10.0225 8.46969C9.82534 8.59049 9.82534 8.59049 9.70662 8.77877C9.70263 8.90822 9.71992 9.01452 9.75001 9.14059C9.76071 9.18917 9.77141 9.23775 9.78242 9.2878C9.9486 9.91675 10.2977 10.4119 10.8505 10.7607C11.4178 11.0633 11.9877 11.1474 12.6123 10.9892C13.2549 10.7861 13.7241 10.3887 14.0361 9.79098C14.2225 9.40765 14.2638 9.06773 14.2559 8.6484C14.2555 8.60538 14.255 8.56235 14.2546 8.51803C14.2535 8.41303 14.252 8.30807 14.25 8.20309C14.2213 8.20358 14.1926 8.20407 14.1629 8.20457C12.8875 8.22341 11.7041 8.11645 10.6875 7.26559C10.5821 7.14457 10.5495 7.09896 10.5293 6.93746C10.5493 6.7778 10.5639 6.71303 10.6875 6.60934C10.9287 6.57959 11.0589 6.61562 11.2516 6.76414C11.2914 6.79628 11.2914 6.79628 11.332 6.82906C11.9768 7.31709 12.6972 7.50951 13.5029 7.50875C13.5369 7.50878 13.5708 7.50881 13.6057 7.50884C13.9504 7.50554 14.2851 7.46162 14.625 7.40621C14.6658 6.8051 14.4471 6.2501 14.0609 5.79342C13.5909 5.29609 13.0735 5.06318 12.3897 5.04378C12.2926 5.04307 12.1956 5.04324 12.0986 5.04413C12.0001 5.04488 11.9018 5.04413 11.8034 5.04323C11.0238 5.04191 10.4389 5.25736 9.89412 5.82857ZM10.875 11.625C10.7797 11.8468 10.7264 12.0386 10.7344 12.2812C10.8653 12.5464 11.1174 12.7388 11.335 12.9316C11.3945 12.9871 11.4539 13.0429 11.513 13.0988C11.6578 13.2348 11.8047 13.368 11.9531 13.5C12.2256 13.3853 12.4321 13.1557 12.6432 12.9545C12.6966 12.9043 12.7509 12.8548 12.8059 12.8062C12.9882 12.6448 13.1437 12.4935 13.2656 12.2812C13.2688 12.0415 13.2148 11.8459 13.125 11.625C13.0918 11.6317 13.0585 11.6384 13.0242 11.6454C12.3746 11.7771 11.7824 11.8308 11.1363 11.6557C11.0137 11.6192 11.0137 11.6192 10.875 11.625Z" fill="black"/>
<path d="M4.40535 6.31627C4.43659 6.33561 4.46783 6.35494 4.50002 6.37486C4.5327 6.3942 4.56539 6.41354 4.59908 6.43346C4.93027 6.653 5.13122 6.97128 5.22365 7.35631C5.25512 7.53693 5.23701 7.67807 5.20314 7.85729C5.1814 7.98612 5.1814 7.98612 5.20314 8.10924C5.30744 8.22697 5.419 8.30691 5.54829 8.39616C5.95803 8.68814 6.22657 9.2697 6.32814 9.74986C6.46538 10.646 6.47852 11.7032 5.97346 12.4891C5.86076 12.6397 5.75361 12.7699 5.60396 12.8852C5.44565 13.0117 5.31866 13.1151 5.27533 13.3211C5.22247 13.7954 5.22247 13.7954 5.38112 14.2228C5.477 14.2914 5.57181 14.3536 5.67482 14.411C5.83394 14.5081 5.93243 14.5853 6.00001 14.7655C5.99641 14.9131 5.96148 14.9867 5.88283 15.1112C5.72704 15.2125 5.63181 15.1978 5.45216 15.1703C5.3415 15.1399 5.26173 15.099 5.16505 15.0379C5.11575 15.0099 5.06644 14.9819 5.01564 14.953C4.92622 14.9799 4.92622 14.9799 4.82814 15.0467C4.77537 15.0757 4.7226 15.1046 4.66823 15.1344C4.38227 15.3298 4.20377 15.5401 4.13603 15.8863C4.07877 16.3961 4.10038 16.9147 4.1133 17.4266C4.12007 17.7227 4.12167 18.0189 4.12376 18.315C4.12488 18.4723 4.12747 18.6295 4.13126 18.7868C4.13247 18.8585 4.13367 18.9303 4.13487 19.0021C4.13597 19.0342 4.13707 19.0664 4.1382 19.0995C4.14076 19.3144 4.09791 19.4583 3.98439 19.6405C3.83946 19.713 3.72216 19.7011 3.56252 19.6874C3.45895 19.6148 3.45895 19.6148 3.37502 19.4999C3.36019 19.3751 3.35651 19.271 3.36207 19.147C3.36287 19.1117 3.36366 19.0763 3.36448 19.0399C3.36624 18.9633 3.36838 18.8866 3.37087 18.8099C3.37451 18.6878 3.37645 18.5657 3.37784 18.4436C3.38181 18.0962 3.38644 17.749 3.39798 17.4019C3.48198 16.2948 3.48198 16.2948 3.03877 15.3344C2.87956 15.1898 2.71631 15.0627 2.53126 14.953C2.35107 15.022 2.1798 15.1026 2.0074 15.1892C1.95317 15.2164 1.89894 15.2436 1.84306 15.2716C1.78633 15.3002 1.7296 15.3287 1.67287 15.3573C1.61522 15.3862 1.55758 15.4152 1.49992 15.4441C1.35929 15.5147 1.21869 15.5854 1.07814 15.6561C1.14515 15.8105 1.22696 15.9077 1.34877 16.0231C1.38357 16.0567 1.41838 16.0904 1.45424 16.125C1.52717 16.1947 1.60029 16.2642 1.6736 16.3334C2.15977 16.8053 2.25376 17.2686 2.26411 17.9303C2.26496 18.0553 2.26512 18.1802 2.26481 18.3052C2.26466 18.4338 2.26577 18.5623 2.26695 18.6909C2.26706 18.7733 2.26709 18.8557 2.26704 18.9381C2.26748 18.9762 2.26791 19.0143 2.26835 19.0535C2.26649 19.2831 2.23681 19.4416 2.10939 19.6405C1.96446 19.713 1.84716 19.7011 1.68751 19.6874C1.58462 19.6198 1.58462 19.6198 1.50001 19.4999C1.47284 19.3552 1.47501 19.2126 1.47639 19.0657C1.47595 19.0233 1.47551 18.9809 1.47506 18.9371C1.47371 18.8015 1.47357 18.6658 1.47365 18.5301C1.47348 18.3953 1.47302 18.2605 1.47174 18.1256C1.47096 18.0419 1.47081 17.9581 1.47141 17.8743C1.4685 17.5241 1.42034 17.2099 1.17574 16.945C1.12536 16.8965 1.07426 16.8487 1.02248 16.8016C0.996282 16.7767 0.970088 16.7518 0.9431 16.7261C0.879372 16.6656 0.814782 16.6061 0.750015 16.5467C0.749844 16.5833 0.749673 16.6199 0.749497 16.6576C0.747722 17.0025 0.745057 17.3473 0.741395 17.6921C0.739543 17.8694 0.738035 18.0467 0.737312 18.224C0.736602 18.3951 0.734988 18.5662 0.73275 18.7373C0.732055 18.8026 0.731685 18.8679 0.731645 18.9331C0.731534 19.0246 0.730159 19.116 0.728729 19.2075C0.728313 19.2595 0.727896 19.3116 0.727467 19.3652C0.697483 19.5312 0.649226 19.587 0.51564 19.6874C0.335768 19.7131 0.234947 19.7214 0.0850274 19.6138C-0.0277494 19.4627 -0.0263702 19.3353 -0.0242465 19.1539C-0.0245751 19.1194 -0.0249036 19.0848 -0.0252421 19.0492C-0.0260668 18.9351 -0.0255209 18.821 -0.0248874 18.7068C-0.0250137 18.6272 -0.0251958 18.5475 -0.025431 18.4679C-0.0257074 18.3009 -0.0253057 18.1338 -0.0244296 17.9668C-0.0233654 17.7536 -0.0239738 17.5404 -0.0250994 17.3272C-0.0257803 17.1626 -0.0255598 16.998 -0.0250755 16.8334C-0.0249511 16.7549 -0.0251014 16.6763 -0.0255404 16.5978C-0.0277278 16.0961 -0.0116025 15.6618 0.339859 15.2694C0.36427 15.2411 0.388682 15.2128 0.413833 15.1837C0.761294 14.8762 1.20829 14.6978 1.62169 14.4976C1.6703 14.4737 1.71891 14.4499 1.769 14.4253C1.81301 14.4039 1.85701 14.3826 1.90235 14.3606C2.07162 14.2652 2.14131 14.201 2.20314 14.0155C2.27129 13.5295 2.27129 13.5295 2.11012 13.0888C2.02879 13.0204 1.94517 12.9546 1.85963 12.8916C1.45518 12.5853 1.2046 12.0238 1.12501 11.5311C1.11903 11.4072 1.11512 11.2845 1.11385 11.1605C1.11347 11.1248 1.11309 11.0891 1.1127 11.0524C1.11205 10.9769 1.11155 10.9014 1.11118 10.8259C1.11064 10.7498 1.10969 10.6738 1.1083 10.5977C1.0941 9.82092 1.22835 9.13728 1.76112 8.53569C1.91664 8.37768 2.0653 8.23238 2.25001 8.10924C2.25547 7.98036 2.25386 7.85957 2.24709 7.73131C2.23541 7.25115 2.34454 6.95498 2.67537 6.59935C3.13643 6.17102 3.83173 6.00977 4.40535 6.31627ZM3.12563 7.19884C3.00085 7.39255 2.98104 7.54861 3.00002 7.78111C3.06899 7.76969 3.06899 7.76969 3.13936 7.75804C3.33467 7.73025 3.52665 7.72732 3.72365 7.72838C3.75703 7.7282 3.79042 7.72802 3.82481 7.72783C4.05362 7.72825 4.27348 7.74893 4.50002 7.78111C4.4844 7.48442 4.42917 7.29353 4.21877 7.07799C3.86876 6.83139 3.40501 6.8649 3.12563 7.19884ZM2.30568 9.08482C2.02254 9.43222 1.88551 9.77038 1.87501 10.2186C2.15641 10.0906 2.41725 9.97098 2.64259 9.75572C2.76126 9.64467 2.79766 9.61215 2.96193 9.57994C3.23105 9.63975 3.37249 9.79421 3.56252 9.98424C3.97337 10.3417 4.42178 10.5082 4.96291 10.5087C4.99547 10.5092 5.02804 10.5098 5.0616 10.5104C5.26768 10.511 5.43363 10.482 5.62502 10.4061C5.5957 9.85623 5.4632 9.43569 5.09474 9.01744C5.05317 8.9807 5.0116 8.94397 4.96877 8.90611C4.9429 8.88297 4.91704 8.85983 4.8904 8.83598C4.50459 8.51634 4.06288 8.40381 3.56709 8.42272C3.05253 8.47463 2.65764 8.70848 2.30568 9.08482ZM2.67189 10.6258C2.42368 10.8003 2.15723 10.9076 1.87501 11.0155C1.84253 11.5108 1.98419 11.9015 2.3044 12.2813C2.65062 12.6569 3.06684 12.8981 3.58302 12.9485C4.14294 12.9648 4.64207 12.7948 5.06252 12.4217C5.33362 12.1399 5.5707 11.7461 5.58437 11.3511C5.58231 11.3022 5.58026 11.2534 5.57814 11.203C5.54725 11.204 5.51636 11.205 5.48454 11.206C4.62451 11.2297 3.84856 11.2009 3.16701 10.5995C2.97331 10.4388 2.85501 10.4882 2.67189 10.6258ZM3.00002 13.5936C2.9316 13.8125 2.88415 14.0269 2.95314 14.2499C3.1523 14.5419 3.43401 14.7739 3.70314 14.9999C4.01791 14.8523 4.31619 14.5933 4.50002 14.2967C4.56713 14.0634 4.53839 13.8307 4.50002 13.5936C4.41735 13.6052 4.41735 13.6052 4.33302 13.6171C3.89154 13.6659 3.4387 13.6652 3.00002 13.5936Z" fill="black"/>
<path d="M19.4883 6.9227C19.5489 6.92194 19.6096 6.92119 19.6721 6.92041C20.4039 6.92004 20.9728 7.08394 21.5123 7.58591C21.9961 8.09162 22.1353 8.67183 22.1414 9.35011C22.1422 9.41348 22.1435 9.47686 22.1452 9.54022C22.1478 9.63204 22.1487 9.72391 22.1495 9.81577C22.1509 9.89793 22.1509 9.89793 22.1523 9.98175C22.125 10.1248 22.125 10.1248 22.0151 10.2379C21.8906 10.3123 21.8906 10.3123 21.75 10.3123C21.7524 10.3905 21.7524 10.3905 21.7549 10.4702C21.7697 11.1297 21.6617 11.5843 21.2812 12.1405C21.2131 12.1999 21.2131 12.1999 21.1435 12.2606C21.0065 12.4225 21.0226 12.5566 21.0249 12.763C21.052 12.9205 21.0866 12.9998 21.1875 13.1248C21.3051 13.2072 21.4309 13.2694 21.5596 13.3329C21.5976 13.3524 21.6357 13.3719 21.675 13.3921C21.8914 13.5024 22.1095 13.6091 22.3284 13.7146C22.4456 13.7711 22.5625 13.8283 22.6795 13.8854C22.7647 13.9267 22.8504 13.967 22.936 14.0073C23.4089 14.2372 23.7573 14.5008 23.9531 14.9998C24.0147 15.1845 24.0077 15.3611 24.0083 15.5536C24.0086 15.5959 24.0089 15.6381 24.0092 15.6816C24.0101 15.8215 24.0107 15.9614 24.0112 16.1012C24.0113 16.149 24.0115 16.1967 24.0117 16.2459C24.0127 16.4983 24.0134 16.7508 24.0138 17.0033C24.0143 17.2644 24.016 17.5255 24.0178 17.7866C24.019 17.9871 24.0194 18.1876 24.0196 18.3882C24.0198 18.4844 24.0204 18.5807 24.0212 18.677C24.0224 18.8115 24.0223 18.9461 24.022 19.0806C24.0229 19.1404 24.0229 19.1404 24.0238 19.2014C24.0223 19.3794 24.0209 19.4706 23.9151 19.6183C23.7642 19.7198 23.6618 19.7127 23.4844 19.6873C23.382 19.6163 23.382 19.6163 23.2969 19.4998C23.278 19.3649 23.2704 19.2477 23.2713 19.1128C23.2708 19.0739 23.2703 19.035 23.2698 18.995C23.2684 18.8666 23.2684 18.7383 23.2683 18.61C23.2676 18.5209 23.2668 18.4318 23.2659 18.3428C23.2639 18.1085 23.263 17.8742 23.2623 17.64C23.2613 17.4009 23.2594 17.1617 23.2575 16.9226C23.254 16.4536 23.2516 15.9845 23.25 15.5155C23.0972 15.5155 23.0318 15.6202 22.9248 15.7235C22.8838 15.7621 22.8427 15.8007 22.8005 15.8405C22.5229 16.1936 22.527 16.5827 22.529 17.0179C22.5295 17.1194 22.529 17.2209 22.5283 17.3224C22.5264 17.6106 22.5263 17.8989 22.5264 18.1871C22.5264 18.3642 22.5255 18.5412 22.5241 18.7183C22.5236 18.8181 22.5242 18.9179 22.5248 19.0177C22.5243 19.0783 22.5238 19.1389 22.5233 19.2013C22.5233 19.2545 22.5234 19.3078 22.5234 19.3627C22.4947 19.5309 22.4479 19.5862 22.3125 19.6873C22.1484 19.7108 22.1484 19.7108 21.9844 19.6873C21.8481 19.5833 21.8044 19.5224 21.75 19.3592C21.7453 19.2647 21.7435 19.17 21.7432 19.0753C21.7429 19.0168 21.7426 18.9582 21.7423 18.8979C21.7422 18.8339 21.7421 18.7698 21.7421 18.7057C21.742 18.6398 21.7418 18.5738 21.7416 18.5079C21.7414 18.3695 21.7413 18.2311 21.7413 18.0926C21.7413 17.9164 21.7407 17.7401 21.7399 17.5639C21.7393 17.4275 21.7392 17.2911 21.7393 17.1548C21.7392 17.0899 21.739 17.025 21.7386 16.9601C21.7354 16.3238 21.7688 15.7851 22.2273 15.31C22.3359 15.2005 22.4464 15.0934 22.5578 14.9868C22.6864 14.8741 22.6864 14.8741 22.7344 14.7655C22.6762 14.7479 22.6762 14.7479 22.6168 14.73C22.4303 14.6636 22.2596 14.58 22.0836 14.4899C22.0318 14.4637 22.0318 14.4637 21.979 14.437C21.8693 14.3817 21.7598 14.326 21.6504 14.2704C21.5058 14.1968 21.3612 14.1236 21.2164 14.0504C21.1834 14.0336 21.1504 14.0167 21.1164 13.9993C20.9028 13.8865 20.9028 13.8865 20.6719 13.828C20.3445 13.9951 19.9967 14.3561 19.8793 14.7041C19.8168 15.041 19.8334 15.3804 19.845 15.7213C19.8458 15.8301 19.8462 15.9389 19.8464 16.0478C19.8475 16.332 19.853 16.616 19.8596 16.9001C19.8693 17.3567 19.8719 17.8134 19.8754 18.2701C19.8772 18.4292 19.8805 18.5883 19.8841 18.7474C19.8857 18.8445 19.8872 18.9416 19.8887 19.0387C19.8901 19.0828 19.8915 19.127 19.893 19.1725C19.8961 19.4695 19.8961 19.4695 19.7906 19.621C19.6389 19.7186 19.5357 19.7125 19.3594 19.6873C19.2485 19.5998 19.1878 19.5317 19.125 19.4061C19.1217 19.343 19.1214 19.2797 19.1226 19.2166C19.1232 19.1769 19.1239 19.1372 19.1245 19.0964C19.1259 19.0309 19.1259 19.0309 19.1273 18.9641C19.1288 18.869 19.1303 18.7738 19.1318 18.6786C19.1326 18.6279 19.1334 18.5772 19.1343 18.525C19.1389 18.1996 19.1401 17.8741 19.1417 17.5487C19.1433 17.2632 19.1462 16.9777 19.1521 16.6922C19.1578 16.4158 19.1598 16.1395 19.1593 15.863C19.1597 15.7582 19.1615 15.6534 19.1647 15.5486C19.1796 15.0297 19.1767 14.6299 18.8132 14.2312C18.5898 14.0045 18.5898 14.0045 18.3281 13.828C18.2294 13.8401 18.2294 13.8401 18.1406 13.8748C17.8181 13.907 17.8181 13.907 17.6748 13.8192C17.5851 13.6662 17.5652 13.5526 17.6074 13.3797C17.6854 13.2414 17.7797 13.172 17.9062 13.078C18.0173 12.8558 17.9855 12.5676 17.9531 12.328C17.8858 12.2143 17.8119 12.1396 17.7164 12.0489C17.2946 11.606 17.2373 11.008 17.2467 10.4292C17.2478 10.3906 17.2489 10.3521 17.25 10.3123C17.1833 10.2949 17.1833 10.2949 17.1152 10.2772C16.9687 10.2186 16.9687 10.2186 16.9135 10.1347C16.8713 10.0212 16.8629 9.93633 16.8625 9.81558C16.8623 9.77439 16.8621 9.7332 16.8619 9.69076C16.8624 9.64742 16.8628 9.60408 16.8633 9.55942C16.8636 9.51502 16.8639 9.47062 16.8642 9.42487C16.8754 8.6684 17.0527 8.0925 17.5812 7.53903C18.1317 7.01316 18.7555 6.9209 19.4883 6.9227ZM17.982 8.20133C17.6722 8.59119 17.6095 8.98139 17.625 9.4686C17.9656 9.38793 18.2461 9.16098 18.5039 8.93247C18.6467 8.83326 18.7176 8.84238 18.8906 8.85922C19.0233 8.90721 19.1479 8.9698 19.2744 9.03207C19.947 9.34582 20.6388 9.49431 21.375 9.56235C21.4014 9.01254 21.3748 8.60533 21.0176 8.16489C20.7747 7.90743 20.4306 7.70295 20.0713 7.67831C19.8975 7.67419 19.7237 7.67166 19.5498 7.66977C19.4606 7.66714 19.4606 7.66714 19.3695 7.66446C18.8156 7.65934 18.3613 7.78032 17.982 8.20133ZM18.6665 9.71378C18.6244 9.74405 18.5824 9.77432 18.539 9.80551C18.3643 9.92882 18.1935 10.0329 18 10.1248C17.9783 10.6674 17.9768 11.2037 18.3444 11.6369C18.3827 11.6774 18.3827 11.6774 18.4219 11.7186C18.446 11.7446 18.4701 11.7706 18.4949 11.7973C18.7694 12.0619 19.1267 12.1943 19.5058 12.2079C19.9494 12.1861 20.3552 12 20.6622 11.677C21.0217 11.2252 21.018 10.8156 21 10.2655C20.9156 10.2509 20.9156 10.2509 20.8295 10.236C20.2989 10.1395 19.7969 10.0023 19.2879 9.82419C19.2515 9.81156 19.215 9.79892 19.1775 9.78591C19.0923 9.75498 19.0086 9.71976 18.9254 9.68375C18.7937 9.64224 18.7937 9.64224 18.6665 9.71378ZM18.75 12.7967C18.7154 13.0466 18.7154 13.0466 18.8159 13.2686C18.9075 13.3661 19.0024 13.4569 19.1015 13.5467C19.1351 13.5786 19.1686 13.6104 19.2032 13.6432C19.2857 13.7213 19.369 13.7985 19.4531 13.8748C19.6695 13.7769 19.8135 13.6272 19.9805 13.4618C20.0109 13.4328 20.0414 13.4039 20.0727 13.3741C20.247 13.2088 20.247 13.2088 20.3166 12.9866C20.3101 12.9549 20.3036 12.9232 20.2969 12.8905C20.1683 12.8564 20.0743 12.8416 19.9424 12.8641C19.5371 12.9304 19.1465 12.895 18.75 12.7967Z" fill="black"/>
</g>
<defs>
<clipPath id="clip0_38_2329">
<rect width="24" height="24" fill="white"/>
</clipPath>
</defs>
</svg>
